<?xml version="1.0" encoding="UTF-8" standalone="no"?>
<!-- Generator: visioncortex VTracer 0.6.12 -->

<svg
   version="1.1"
   width="102"
   height="80"
   id="svg3"
   sodipodi:docname="white-712.svg"
   inkscape:version="1.4.3 (0d15f75, 2025-12-25)"
   xmlns:inkscape="http://www.inkscape.org/namespaces/inkscape"
   xmlns:sodipodi="http://sodipodi.sourceforge.net/DTD/sodipodi-0.dtd"
   xmlns="http://www.w3.org/2000/svg"
   xmlns:svg="http://www.w3.org/2000/svg">
  <defs
     id="defs3" />
  <sodipodi:namedview
     id="namedview3"
     pagecolor="#000000"
     bordercolor="#000000"
     borderopacity="0.25"
     inkscape:showpageshadow="2"
     inkscape:pageopacity="0.0"
     inkscape:pagecheckerboard="0"
     inkscape:deskcolor="#d1d1d1"
     inkscape:zoom="5.7"
     inkscape:cx="50.964912"
     inkscape:cy="40"
     inkscape:window-width="1280"
     inkscape:window-height="658"
     inkscape:window-x="-6"
     inkscape:window-y="-6"
     inkscape:window-maximized="1"
     inkscape:current-layer="svg3" />
  <path
     d="M0 0 C11.22 0 22.44 0 34 0 C34 9 34 9 32.272 12.381 C31.895 13.138 31.517 13.895 31.129 14.674 C30.716 15.461 30.304 16.248 29.879 17.059 C29.46 17.888 29.04 18.718 28.608 19.573 C27.274 22.202 25.919 24.82 24.562 27.438 C23.654 29.223 22.747 31.008 21.842 32.795 C15.246 45.754 15.246 45.754 14 47 C12.147 47.072 10.292 47.084 8.438 47.062 C7.426 47.053 6.414 47.044 5.371 47.035 C4.98 47.029 4.98 47.029 3 47 C9.137 33.896 15.492 20.924 22 8 C14.74 8 7.48 8 0 8 C0 5.36 0 2.72 0 0 Z "
     fill="#FFFFFF"
     transform="translate(20,16)"
     id="path1" />
  <path
     d="M0 0 C0 15.51 0 31.02 0 47 C-3.63 47 -7.26 47 -11 47 C-11.33 35.12 -11.66 23.24 -12 11 C-14.64 12.65 -17.28 14.3 -20 16 C-20.66 16 -21.32 16 -22 16 C-22.651 12.811 -22.793 10.173 -22 7 C-15.517 -0.746 -10.368 0 0 0 Z "
     fill="#FFFFFF"
     transform="translate(81,16)"
     id="path2" />
  <path
     d="M0 0 C1.938 1.062 1.938 1.062 3 3 C2.688 6.687 2.688 6.687 2 10 C-3.24 12.144 -3.24 12.144 -6.312 11.562 C-8 10 -8 10 -8.938 6.562 C-9 3 -9 3 -7.938 1.062 C-5.133 -0.476 -3.145 -0.393 0 0 Z "
     fill="#FFFFFF"
     transform="translate(58,52)"
     id="path3" />
  <path
     style="fill:#ffcc00;stroke-width:0.175439"
     d="m 23.903509,63.037207 c -0.458334,-0.04069 -0.833334,-0.118456 -0.833334,-0.172821 0,-0.3219 7.750164,-16.413546 13.79307,-28.638518 2.738373,-5.539807 4.97886,-10.099018 4.97886,-10.131579 0,-0.03256 -4.93421,-0.0592 -10.964912,-0.0592 H 19.912281 V 20 15.964912 h 17.02305 c 14.864569,0 17.035678,0.03291 17.122648,0.25955 0.05478,0.142752 0.02128,2.136173 -0.07445,4.429824 -0.14436,3.458942 -0.23573,4.344888 -0.535665,5.193963 -0.32569,0.92198 -3.757146,7.712353 -14.022332,27.748242 -3.332737,6.504934 -4.560879,8.675398 -5.211708,9.210527 -0.264857,0.21777 -1.109707,0.266694 -4.89852,0.283661 -2.518154,0.01128 -4.953463,-0.01279 -5.411796,-0.05347 z"
     id="path4" />
  <path
     style="fill:#ffcc00;stroke-width:0.175439"
     d="m 52.192982,63.743314 c -0.552699,-0.110461 -1.685185,-1.182835 -2.100417,-1.988928 -0.753672,-1.46311 -1.089953,-3.120456 -1.028477,-5.068811 0.07904,-2.504891 0.495855,-3.400851 1.900824,-4.085841 1.38882,-0.677116 2.887322,-0.912364 5.070441,-0.796002 1.573732,0.08388 1.986544,0.170382 2.687102,0.563057 0.903305,0.506318 1.604839,1.247553 2.035534,2.150729 0.240653,0.504656 0.250341,0.836389 0.07444,2.548867 -0.111224,1.082786 -0.329619,2.641903 -0.485324,3.464702 l -0.283099,1.495999 -2.137265,0.857073 c -1.931572,0.774586 -2.289224,0.86139 -3.716212,0.901942 -0.868421,0.02468 -1.776315,0.0054 -2.017544,-0.04279 z"
     id="path5" />
  <path
     style="fill:#ffcc00;stroke-width:0.175439"
     d="m 69.91007,61.885965 c -0.0012,-0.60307 -0.19759,-7.925439 -0.436386,-16.27193 -0.238796,-8.346491 -0.435169,-15.905702 -0.436385,-16.798246 -0.0012,-0.892543 -0.06435,-1.622807 -0.140303,-1.622807 -0.07595,0 -1.911477,1.107978 -4.078947,2.462172 l -3.940856,2.462171 -0.964912,-0.04989 -0.964913,-0.04989 -0.216248,-1.22807 c -0.285192,-1.619598 -0.303441,-4.954094 -0.03552,-6.491228 0.183843,-1.054775 0.328113,-1.362243 1.022384,-2.178897 1.730278,-2.035284 4.286956,-3.9216 6.575851,-4.851661 2.298766,-0.934073 3.982598,-1.155331 9.539502,-1.253506 l 5.131579,-0.09066 V 39.45299 62.982457 H 75.4386 69.912285 Z"
     id="path6" />
</svg>
