<?xml version="1.0" encoding="UTF-8" standalone="no"?>
<!-- Generator: visioncortex VTracer 0.6.12 -->

<svg
   version="1.1"
   width="921"
   height="320"
   id="svg6"
   sodipodi:docname="white-HDR10Plus2.svg"
   inkscape:version="1.4.3 (0d15f75, 2025-12-25)"
   xmlns:inkscape="http://www.inkscape.org/namespaces/inkscape"
   xmlns:sodipodi="http://sodipodi.sourceforge.net/DTD/sodipodi-0.dtd"
   xmlns="http://www.w3.org/2000/svg"
   xmlns:svg="http://www.w3.org/2000/svg">
  <defs
     id="defs6" />
  <sodipodi:namedview
     id="namedview6"
     pagecolor="#000000"
     bordercolor="#000000"
     borderopacity="0.25"
     inkscape:showpageshadow="2"
     inkscape:pageopacity="0.0"
     inkscape:pagecheckerboard="0"
     inkscape:deskcolor="#d1d1d1"
     inkscape:zoom="0.61672096"
     inkscape:cx="367.26496"
     inkscape:cy="228.62852"
     inkscape:window-width="1280"
     inkscape:window-height="658"
     inkscape:window-x="-6"
     inkscape:window-y="-6"
     inkscape:window-maximized="1"
     inkscape:current-layer="svg6" />
  <path
     d="M0 0 C0.481 -0.002 0.481 -0.002 2.915 -0.015 C6.084 -0.03 9.253 -0.036 12.422 -0.042 C13.511 -0.045 14.6 -0.048 15.722 -0.051 C21.491 -0.066 27.259 -0.075 33.028 -0.079 C38.951 -0.085 44.873 -0.109 50.796 -0.137 C55.381 -0.156 59.966 -0.161 64.551 -0.162 C66.732 -0.165 68.914 -0.173 71.095 -0.187 C92.623 -0.308 112.415 1.23 128.848 16.743 C135.279 23.573 138.989 31.953 140.172 41.161 C139.505 41.16 138.839 41.159 138.152 41.158 C121.874 41.136 105.595 41.12 89.317 41.109 C81.445 41.104 73.572 41.097 65.7 41.086 C58.832 41.076 51.964 41.069 45.096 41.067 C41.465 41.066 37.834 41.063 34.204 41.055 C30.133 41.047 26.063 41.047 21.992 41.048 C20.812 41.044 19.631 41.04 18.415 41.037 C-9.265 41.07 -9.265 41.07 -15.641 46.786 C-19.794 55.094 -19.123 64.559 -19.094 73.599 C-19.095 75.089 -19.097 76.579 -19.1 78.069 C-19.102 81.179 -19.098 84.289 -19.089 87.398 C-19.077 91.362 -19.084 95.326 -19.096 99.29 C-19.103 102.363 -19.101 105.436 -19.096 108.509 C-19.094 109.97 -19.096 111.431 -19.101 112.891 C-19.148 131.813 -19.148 131.813 -14.828 139.161 C-7.866 143.532 -0.233 143.312 7.716 143.322 C8.181 143.325 8.181 143.325 10.537 143.337 C13.596 143.352 16.655 143.359 19.715 143.364 C21.848 143.37 23.98 143.376 26.113 143.382 C30.574 143.392 35.035 143.398 39.496 143.401 C45.216 143.407 50.936 143.431 56.655 143.459 C61.055 143.478 65.455 143.483 69.855 143.485 C71.965 143.488 74.075 143.496 76.184 143.509 C79.128 143.526 82.072 143.524 85.016 143.518 C85.453 143.522 85.453 143.522 87.66 143.546 C93.555 143.505 93.555 143.505 96.694 141.756 C101.478 136.595 100.575 126.715 100.797 120.099 C100.921 116.819 101.044 113.54 101.172 110.161 C115.032 110.161 128.892 110.161 143.172 110.161 C143.821 155.358 143.821 155.358 130.297 169.599 C128.951 170.819 127.577 172.009 126.172 173.161 C125.602 173.63 125.032 174.1 124.445 174.583 C115.812 180.744 104.267 183.194 93.881 184.289 C93.109 184.372 92.338 184.455 91.542 184.54 C82.435 185.437 73.342 185.451 64.199 185.427 C62.338 185.428 60.476 185.43 58.614 185.433 C54.744 185.435 50.874 185.431 47.005 185.422 C42.095 185.41 37.185 185.417 32.275 185.429 C28.44 185.436 24.606 185.434 20.772 185.429 C18.963 185.427 17.154 185.429 15.346 185.434 C-4.9 185.475 -26.142 185.151 -42.828 172.161 C-43.694 171.584 -44.561 171.006 -45.453 170.411 C-56.91 159.558 -61.461 143.517 -62.023 128.101 C-62.132 123.407 -62.133 118.712 -62.129 114.017 C-62.133 112.276 -62.137 110.536 -62.142 108.795 C-62.149 105.163 -62.149 101.532 -62.144 97.9 C-62.138 93.288 -62.155 88.676 -62.178 84.063 C-62.193 80.473 -62.194 76.882 -62.191 73.292 C-62.191 71.593 -62.196 69.894 -62.206 68.196 C-62.309 48.728 -59.852 29.749 -45.832 15.071 C-33.443 3.213 -16.626 0.021 0 0 Z "
     fill="#FEFEFE"
     transform="translate(668.828125,67.8388671875)"
     id="path1" />
  <path
     d="M0 0 C9.729 -0.047 19.457 -0.082 29.186 -0.104 C33.705 -0.114 38.225 -0.128 42.744 -0.151 C47.121 -0.173 51.497 -0.185 55.874 -0.19 C57.528 -0.193 59.183 -0.201 60.837 -0.211 C69.536 -0.267 78.106 -0.041 86.76 0.903 C87.493 0.983 88.226 1.062 88.981 1.145 C105.248 3.104 119.554 10.856 130.039 23.449 C141.401 38.848 143.148 57.716 140.695 76.31 C138.27 89.069 130.755 101.501 120.113 109.047 C118.2 110.257 116.271 111.441 114.32 112.59 C112 114 112 114 110 116 C125.068 144.513 125.068 144.513 132.938 158.312 C136.809 165.104 140.635 171.913 144.312 178.812 C144.692 179.519 145.072 180.225 145.463 180.952 C148 185.757 148 185.757 148 188 C133.48 188 118.96 188 104 188 C93.664 169.625 93.664 169.625 90.465 163.527 C90.097 162.831 89.729 162.134 89.35 161.417 C88.211 159.258 87.074 157.098 85.938 154.938 C85.179 153.499 84.421 152.061 83.662 150.623 C83.29 149.913 82.918 149.204 82.534 148.473 C81.782 147.056 81.017 145.646 80.237 144.244 C78.317 140.753 76.766 137.468 75.645 133.637 C72.968 125.514 72.968 125.514 69 123 C59.896 120.835 50.275 121.445 41 122 C41.002 122.812 41.004 123.624 41.007 124.461 C41.027 132.098 41.042 139.736 41.052 147.373 C41.057 151.3 41.064 155.227 41.075 159.154 C41.086 162.94 41.092 166.727 41.095 170.513 C41.097 171.961 41.1 173.409 41.106 174.857 C41.113 176.878 41.113 178.899 41.114 180.92 C41.116 182.072 41.118 183.225 41.12 184.412 C41 187 41 187 40 188 C37.127 188.101 34.279 188.14 31.406 188.133 C30.544 188.134 29.683 188.135 28.795 188.136 C26.969 188.136 25.143 188.135 23.317 188.13 C20.512 188.125 17.707 188.13 14.902 188.137 C13.133 188.136 11.363 188.135 9.594 188.133 C8.749 188.135 7.904 188.137 7.034 188.139 C1.115 188.115 1.115 188.115 0 187 C-0.098 184.584 -0.13 182.197 -0.12 179.781 C-0.121 179.016 -0.122 178.252 -0.123 177.464 C-0.125 174.883 -0.119 172.302 -0.114 169.72 C-0.113 167.878 -0.113 166.035 -0.114 164.193 C-0.114 159.175 -0.108 154.156 -0.101 149.138 C-0.095 143.899 -0.095 138.661 -0.093 133.423 C-0.09 123.496 -0.082 113.568 -0.072 103.641 C-0.061 92.343 -0.055 81.044 -0.05 69.746 C-0.04 46.497 -0.022 23.249 0 0 Z M41 34 C41 52.15 41 70.3 41 89 C46.383 89.062 51.766 89.124 57.312 89.188 C58.987 89.215 60.662 89.242 62.388 89.27 C72.962 89.37 83.476 89.103 92 82 C97.849 76.014 100.116 70.465 100.438 62.188 C100.154 53.542 98.164 46.585 91.812 40.5 C85.302 34.798 77.412 33.536 69.027 33.707 C68.309 33.71 67.591 33.713 66.851 33.716 C64.213 33.732 61.575 33.774 58.938 33.812 C53.018 33.874 47.099 33.936 41 34 Z "
     fill="#FEFEFE"
     transform="translate(356,66)"
     id="path2" />
  <path
     d="M0 0 C8.781 -0.047 17.563 -0.082 26.344 -0.104 C30.424 -0.114 34.504 -0.128 38.584 -0.151 C106.386 -0.522 106.386 -0.522 131 22 C131.682 22.59 132.364 23.181 133.066 23.789 C148.781 38.243 157.199 61.148 158.14 82.122 C159.001 113.001 155.195 140.897 133.312 164.25 C111.24 185.2 82.763 188.179 53.574 188.133 C52.05 188.133 50.525 188.134 49 188.136 C45.84 188.137 42.679 188.135 39.519 188.13 C35.461 188.125 31.404 188.128 27.346 188.134 C24.214 188.138 21.082 188.136 17.95 188.134 C16.452 188.133 14.954 188.134 13.456 188.136 C11.379 188.139 9.302 188.135 7.225 188.129 C6.044 188.129 4.863 188.128 3.646 188.127 C1 188 1 188 0 187 C-0.098 184.584 -0.13 182.197 -0.12 179.781 C-0.121 179.016 -0.122 178.252 -0.123 177.464 C-0.125 174.883 -0.119 172.302 -0.114 169.72 C-0.113 167.878 -0.113 166.035 -0.114 164.193 C-0.114 159.175 -0.108 154.156 -0.101 149.138 C-0.095 143.899 -0.095 138.661 -0.093 133.423 C-0.09 123.496 -0.082 113.568 -0.072 103.641 C-0.061 92.343 -0.055 81.044 -0.05 69.746 C-0.04 46.497 -0.022 23.249 0 0 Z M41 35 C41 73.94 41 112.88 41 153 C90.41 153 90.41 153 104.965 139.215 C118.498 124.486 118.609 103.761 118.141 84.909 C117.381 69.204 112.226 55.663 100.812 44.75 C84.377 31.513 60.018 35 41 35 Z "
     fill="#FEFEFE"
     transform="translate(180,66)"
     id="path3" />
  <path
     d="M0 0 C13.2 0 26.4 0 40 0 C40 25.41 40 50.82 40 77 C66.07 77 92.14 77 119 77 C119 51.59 119 26.18 119 0 C132.2 0 145.4 0 159 0 C159 62.04 159 124.08 159 188 C145.8 188 132.6 188 119 188 C119 162.59 119 137.18 119 111 C92.93 111 66.86 111 40 111 C40 136.41 40 161.82 40 188 C26.8 188 13.6 188 0 188 C0 125.96 0 63.92 0 0 Z "
     fill="#FEFEFE"
     transform="translate(0,66)"
     id="path4" />
  <path
     d="M0 0 C14.19 0 28.38 0 43 0 C43 17.49 43 34.98 43 53 C60.49 53 77.98 53 96 53 C96 67.19 96 81.38 96 96 C78.51 96 61.02 96 43 96 C43 113.49 43 130.98 43 149 C28.81 149 14.62 149 0 149 C0 131.51 0 114.02 0 96 C-18.15 96 -36.3 96 -55 96 C-55 81.81 -55 67.62 -55 53 C-36.85 53 -18.7 53 0 53 C0 35.51 0 18.02 0 0 Z "
     fill="#FEFEFE"
     transform="translate(825,69)"
     id="path5" />
  <path
     d="M0 0 C18.003 0 36.005 0.471 54 1 C54 61.72 54 122.44 54 185 C39.48 185 24.96 185 10 185 C10 137.15 10 89.3 10 40 C6.7 40 3.4 40 0 40 C0 26.8 0 13.6 0 0 Z "
     fill="#FEFEFE"
     transform="translate(535,67)"
     id="path6" />
  <path
     style="fill:#ffcc00;stroke-width:1.62148"
     d="M -0.41843527,160.12104 0,65.669894 19.863116,65.214617 39.726232,64.75934 v 38.9654 38.9654 H 79.452465 119.1787 v -38.9654 -38.9654 l 19.86311,0.455277 19.86312,0.455277 0.41844,94.451146 0.41844,94.45114 H 139.46025 119.1787 v -38.94432 -38.94432 l -39.320866,0.4342 -39.320862,0.4342 -0.434717,38.51012 -0.434715,38.51012 H 19.415335 -0.83687054 Z"
     id="path7" />
  <path
     style="fill:#ffcc00;stroke-width:1.62148"
     d="m 179.98456,252.71966 c -0.46329,-1.21065 -0.6529,-43.79211 -0.42137,-94.62547 l 0.42096,-92.424296 35.67254,-0.460258 c 43.55023,-0.5619 64.41558,1.228729 74.81027,6.420089 4.13835,2.066792 13.17429,9.232823 20.07987,15.924514 20.44943,19.816051 27.55242,37.884661 27.50336,69.963261 -0.0493,32.25136 -6.90939,52.92816 -23.50888,70.8576 -9.52597,10.28918 -22.75286,17.8859 -38.8899,22.33602 -13.44085,3.70658 -94.36685,5.40564 -95.66685,2.00854 z m 93.92851,-39.34098 c 17.41136,-10.20374 22.81756,-23.1103 22.81756,-54.47375 0,-20.23448 -0.31998,-22.56442 -4.23103,-30.8081 -5.56095,-11.72133 -14.00058,-20.07384 -23.63489,-23.3909 -8.59279,-2.95847 -36.50676,-5.258346 -43.25741,-3.56404 l -4.27543,1.07306 v 58.58297 58.58296 l 22.70321,-0.89875 c 20.62606,-0.81652 23.35965,-1.28345 29.87799,-5.10345 z"
     id="path8" />
  <path
     style="fill:#ffcc00;stroke-width:1.62148"
     d="M 355.91461,159.76411 V 64.859155 l 34.45643,0.0281 c 57.27644,0.04671 71.81512,2.855753 88.44246,17.088135 9.25622,7.922982 14.53809,17.490942 17.53073,31.75645 5.62923,26.83382 -3.45042,51.04774 -24.00791,64.02511 l -6.271,3.95871 7.63949,14.13293 c 4.20172,7.77311 12.61759,23.06772 18.70193,33.98801 6.08435,10.92031 11.06245,20.95321 11.06245,22.29534 0,2.05161 -3.47005,2.44024 -21.78826,2.44024 h -21.78826 l -11.78859,-21.48459 c -6.48372,-11.81653 -13.69194,-26.1708 -16.01825,-31.89837 -2.47498,-6.0936 -5.53057,-10.92321 -7.3655,-11.64176 -1.7247,-0.67539 -8.41079,-1.27926 -14.85797,-1.34195 l -11.72215,-0.11396 -0.43894,32.83495 -0.43895,32.83494 -20.67385,0.45382 -20.67386,0.45381 z m 88.6636,-9.94681 c 14.71194,-10.98205 14.71194,-34.08037 0,-45.06242 -3.98684,-2.97606 -7.25273,-3.48077 -25.5383,-3.94668 l -20.96685,-0.53422 v 27.01211 27.01212 l 20.96685,-0.53423 c 18.28557,-0.46591 21.55146,-0.97062 25.5383,-3.94668 z"
     id="path9" />
  <path
     style="fill:#ffcc00;stroke-width:1.62148"
     d="m 545.08715,251.86971 c -0.59454,-0.59453 -1.08099,-33.42948 -1.08099,-72.96654 v -71.88556 h -4.86443 -4.86444 V 86.74912 66.480634 l 19.05238,0.01409 c 10.4788,0.0078 22.88312,0.47422 27.56514,1.036597 l 8.51276,1.022502 v 92.198447 92.19843 h -21.61972 c -11.89084,0 -22.10616,-0.48644 -22.7007,-1.08099 z"
     id="path10" />
  <path
     style="fill:#ffcc00;stroke-width:1.62148"
     d="m 647.78729,250.34293 c -20.57315,-5.52754 -32.53276,-16.73477 -38.53073,-36.10675 -4.14606,-13.39077 -4.18444,-93.92245 -0.0511,-107.21857 5.96391,-19.184692 17.90485,-31.252068 36.14313,-36.525838 12.48525,-3.610226 115.02406,-3.894795 126.90341,-0.352186 18.19568,5.426238 30.98433,16.510953 35.06398,30.392104 l 2.14447,7.29666 -74.02277,0.81073 c -67.13673,0.73532 -74.42827,1.07662 -78.38185,3.66884 -2.3975,1.57196 -4.91793,4.85545 -5.60095,7.29666 -1.63561,5.84588 -1.60821,76.09191 0.032,81.97102 2.38208,8.5384 6.98324,9.21665 62.52397,9.21665 43.60737,0 50.39444,-0.33141 52.23631,-2.55072 1.21382,-1.46258 2.42286,-8.3799 2.83408,-16.21479 l 0.71718,-13.66406 h 21.93146 21.93146 l -0.93029,20.91749 c -1.04313,23.45456 -2.07031,26.44056 -12.80116,37.21307 -15.0989,15.15752 -22.0991,16.43136 -89.72211,16.32679 -41.87603,-0.0648 -55.4462,-0.60329 -62.42046,-2.4771 z"
     id="path11" />
  <path
     style="fill:#ffcc00;stroke-width:1.62148"
     d="m 824.52201,192.14525 v -26.75441 h -27.56514 -27.56515 v -21.88996 -21.88996 h 27.56515 27.56514 V 94.856514 68.102113 h 21.88996 21.88997 v 26.754401 26.754406 h 26.7544 26.7544 v 21.88996 21.88996 h -26.7544 -26.7544 v 26.75441 26.7544 h -21.88997 -21.88996 z"
     id="path12" />
</svg>
