<?xml version="1.0" encoding="UTF-8" standalone="no"?>
<!-- Generator: visioncortex VTracer 0.6.12 -->

<svg
   version="1.1"
   width="325"
   height="80"
   id="svg7"
   sodipodi:docname="white-Atmos2.svg"
   inkscape:version="1.4.3 (0d15f75, 2025-12-25)"
   xmlns:inkscape="http://www.inkscape.org/namespaces/inkscape"
   xmlns:sodipodi="http://sodipodi.sourceforge.net/DTD/sodipodi-0.dtd"
   xmlns="http://www.w3.org/2000/svg"
   xmlns:svg="http://www.w3.org/2000/svg">
  <defs
     id="defs7" />
  <sodipodi:namedview
     id="namedview7"
     pagecolor="#000000"
     bordercolor="#000000"
     borderopacity="0.25"
     inkscape:showpageshadow="2"
     inkscape:pageopacity="0.0"
     inkscape:pagecheckerboard="0"
     inkscape:deskcolor="#d1d1d1"
     inkscape:zoom="1.7476923"
     inkscape:cx="211.99384"
     inkscape:cy="32.042254"
     inkscape:window-width="1280"
     inkscape:window-height="658"
     inkscape:window-x="-6"
     inkscape:window-y="-6"
     inkscape:window-maximized="1"
     inkscape:current-layer="svg7" />
  <path
     d="M0 0 C0 16.5 0 33 0 50 C-20.226 50 -20.226 50 -25.371 45.711 C-32.257 38.478 -33.463 31.166 -33.32 21.484 C-32.696 14.693 -29.833 8.833 -25 4 C-18 0 -18 0 0 0 Z "
     fill="#FFFFFF"
     transform="translate(89,15)"
     id="path1" />
  <path
     d="M0 0 C19.931 0 19.931 0 25 5 C30.643 10.795 32.536 17.271 33.066 25.156 C32.901 32.228 30.442 38.512 26 44 C17.328 51.805 13.618 50 0 50 C0 33.5 0 17 0 0 Z "
     fill="#FFFFFF"
     transform="translate(14,15)"
     id="path2" />
  <path
     d="M0 0 C4.6 2.2 4.6 2.2 6 5 C6.784 4.361 7.567 3.721 8.375 3.062 C12.468 -0.153 14.778 -0.354 20 0 C23.702 1.683 25.923 3.516 28 7 C28.341 10.116 28.341 10.116 28.293 13.734 C28.288 14.382 28.288 14.382 28.264 17.66 C28.239 19.023 28.213 20.387 28.188 21.75 C28.172 23.129 28.159 24.508 28.146 25.887 C28.111 29.258 28.062 32.629 28 36 C24.7 36 21.4 36 18 36 C17.951 34.374 17.902 32.749 17.852 31.074 C17.777 28.945 17.701 26.816 17.625 24.688 C17.594 23.616 17.563 22.544 17.531 21.439 C17.512 20.925 17.512 20.925 17.414 18.324 C17.383 17.376 17.351 16.428 17.319 15.452 C17 13 17 13 15 10 C13.02 10.33 11.04 10.66 9 11 C8.67 19.25 8.34 27.5 8 36 C4.37 36 0.74 36 -3 36 C-3.061 34.207 -3.121 32.414 -3.184 30.566 C-3.268 28.232 -3.353 25.897 -3.438 23.562 C-3.477 22.378 -3.516 21.194 -3.557 19.975 C-3.599 18.85 -3.64 17.725 -3.684 16.566 C-3.72 15.524 -3.757 14.482 -3.795 13.408 C-4 11 -4 11 -5 10 C-7.438 9.75 -7.438 9.75 -10 10 C-12.192 13.287 -12.287 14.485 -12.414 18.324 C-12.433 18.838 -12.433 18.838 -12.531 21.439 C-12.562 22.511 -12.593 23.583 -12.625 24.688 C-12.644 25.229 -12.644 25.229 -12.742 27.971 C-12.837 30.647 -12.919 33.323 -13 36 C-16.3 36 -19.6 36 -23 36 C-23 24.45 -23 12.9 -23 1 C-19.7 1 -16.4 1 -13 1 C-12.67 1.66 -12.34 2.32 -12 3 C-11.319 2.505 -10.639 2.01 -9.938 1.5 C-6.298 -0.359 -4.045 -0.433 0 0 Z "
     fill="#FFFFFF"
     transform="translate(211,27)"
     id="path3" />
  <path
     d="M0 0 C4.62 0 9.24 0 14 0 C16.118 6.211 18.236 12.423 20.354 18.634 C21.074 20.748 21.795 22.861 22.516 24.975 C23.551 28.011 24.586 31.046 25.621 34.082 C25.944 35.029 26.267 35.976 26.6 36.952 C26.9 37.832 27.2 38.713 27.51 39.62 C27.774 40.395 28.038 41.17 28.31 41.969 C28.879 43.644 29.441 45.322 30 47 C26.04 47 22.08 47 18 47 C17.01 43.7 16.02 40.4 15 37 C9.39 37 3.78 37 -2 37 C-2.66 40.3 -3.32 43.6 -4 47 C-7.96 47 -11.92 47 -16 47 C-13.73 38.056 -10.8 29.435 -7.702 20.754 C-6.866 18.412 -6.036 16.069 -5.207 13.725 C-4.677 12.232 -4.147 10.739 -3.617 9.246 C-3.493 8.897 -3.493 8.897 -2.866 7.128 C-1.117 2.235 -1.117 2.235 0 0 Z M6 13 C5.328 14.936 4.662 16.874 4 18.812 C3.629 19.891 3.257 20.97 2.875 22.082 C2 25 2 25 2 28 C5.3 28 8.6 28 12 28 C11.385 25.685 10.758 23.373 10.125 21.062 C9.951 20.403 9.777 19.744 9.598 19.064 C9.125 17.358 8.568 15.677 8 14 C7.34 13.67 6.68 13.34 6 13 Z "
     fill="#FFFFFF"
     transform="translate(136,16)"
     id="path4" />
  <path
     d="M0 0 C3.533 2.478 5.379 5.169 6.727 9.211 C7.68 22.94 7.68 22.94 3.727 28.211 C-0.45 32.376 -4.036 34.347 -9.961 34.523 C-15.174 34.455 -19.086 33.364 -23.273 30.211 C-28.112 24.255 -28.97 18.691 -28.273 11.211 C-26.365 5.183 -23.535 1.113 -18.023 -2.102 C-11.438 -3.748 -5.954 -3.345 0 0 Z M-14.023 6.398 C-16.273 8.211 -16.273 8.211 -17.273 11.211 C-17.692 15.511 -17.686 19.168 -16.086 23.211 C-14.273 25.211 -14.273 25.211 -11.898 26.273 C-9.273 26.211 -9.273 26.211 -6.523 24.773 C-3.601 21.446 -3.001 18.52 -3.273 14.211 C-4.115 10.422 -5.36 7.836 -8.648 5.586 C-11.273 5.211 -11.273 5.211 -14.023 6.398 Z "
     fill="#FFFFFF"
     transform="translate(270.2734375,29.7890625)"
     id="path5" />
  <path
     d="M0 0 C2.5 2.438 2.5 2.438 4 5 C3.594 7.16 3.594 7.16 3 9 C1.543 9.081 0.084 9.139 -1.375 9.188 C-2.187 9.222 -2.999 9.257 -3.836 9.293 C-4.55 9.196 -5.264 9.1 -6 9 C-6.66 8.01 -7.32 7.02 -8 6 C-11.125 5.812 -11.125 5.812 -14 6 C-14.33 6.99 -14.66 7.98 -15 9 C-13.891 9.303 -12.783 9.606 -11.641 9.918 C-10.177 10.34 -8.713 10.763 -7.25 11.188 C-6.52 11.384 -5.791 11.581 -5.039 11.783 C-0.272 13.192 2.322 14.569 5 19 C5.658 22.866 5.168 24.657 3.438 28.188 C-0.173 32.354 -3.353 33.723 -8.688 34.281 C-14.165 34.46 -18.392 34.26 -23 31 C-26.255 27.659 -27 26.772 -27 22 C-23.7 22 -20.4 22 -17 22 C-16.67 22.99 -16.34 23.98 -16 25 C-12.7 25 -9.4 25 -6 25 C-8 21 -8 21 -10.645 20.059 C-11.69 19.854 -12.735 19.649 -13.812 19.438 C-18.134 18.573 -21.375 17.557 -25 15 C-26.74 11.52 -26.585 7.797 -26 4 C-19.52 -4.702 -9.026 -5.132 0 0 Z "
     fill="#FFFFFF"
     transform="translate(306,30)"
     id="path6" />
  <path
     d="M0 0 C3.3 0 6.6 0 10 0 C10 2.97 10 5.94 10 9 C12.31 9 14.62 9 17 9 C17 11.64 17 14.28 17 17 C14.69 17 12.38 17 10 17 C10.33 22.94 10.66 28.88 11 35 C12.65 35.33 14.3 35.66 16 36 C16.33 38.64 16.66 41.28 17 44 C13.789 45.605 10.483 45.485 7 45 C1.5 42 1.5 42 0 39 C-0.084 37.333 -0.107 35.662 -0.098 33.992 C-0.094 33.006 -0.091 32.02 -0.088 31.004 C-0.08 29.971 -0.071 28.939 -0.062 27.875 C-0.058 26.835 -0.053 25.794 -0.049 24.723 C-0.037 22.148 -0.021 19.574 0 17 C-1.65 17 -3.3 17 -5 17 C-5 14.36 -5 11.72 -5 9 C-3.35 9 -1.7 9 0 9 C0 6.03 0 3.06 0 0 Z "
     fill="#FFFFFF"
     transform="translate(168,19)"
     id="path7" />
  <path
     style="fill:#ffcc00;stroke-width:0.572183"
     d="M 14.018486,40.036933 V 14.740036 l 9.011884,0.255871 c 6.37729,0.181069 9.597349,0.512776 11.014524,1.134639 2.826575,1.240312 8.366034,7.289492 10.056415,10.98177 1.616126,3.530084 3.083204,9.819195 3.085404,13.226592 0.0042,6.446567 -4.009011,15.862834 -8.412742,19.739153 -4.792545,4.218567 -6.795202,4.83968 -16.315784,5.060245 l -8.439701,0.195525 z"
     id="path8" />
  <path
     style="fill:#ffcc00;stroke-width:0.572183"
     d="M 71.354771,64.644752 C 67.76479,64.121661 64.683501,62.219646 61.933925,58.829461 57.58052,53.46178 55.787852,47.777844 55.787852,39.342369 c 0,-6.465245 1.184798,-10.799176 4.246058,-15.531868 2.497953,-3.861821 3.944756,-5.121067 8.057564,-7.013017 3.162298,-1.454701 4.115749,-1.597374 12.157206,-1.819183 l 8.725792,-0.240685 V 39.983245 65.228873 L 81.679137,65.15749 C 77.666703,65.11823 73.020738,64.887497 71.354771,64.644752 Z"
     id="path9" />
  <path
     style="fill:#ffcc00;stroke-width:0.572183"
     d="m 175.66021,64.138753 c -2.48633,-0.659243 -5.77344,-2.758164 -6.81929,-4.354328 -0.74742,-1.140709 -0.90518,-3.329631 -0.90518,-12.559188 V 36.047535 h -2.57482 -2.57483 v -4.005281 -4.005282 h 2.57483 2.57482 v -4.577465 -4.577465 h 5.14965 5.14965 v 4.577465 4.577465 h 3.43309 3.4331 v 4.005282 4.005281 h -3.46753 -3.46754 l 0.39499,8.439701 c 0.21725,4.641835 0.6505,8.761554 0.96278,9.154929 0.31227,0.393376 1.16156,0.715229 1.8873,0.715229 1.784,0 3.11782,1.455583 3.11782,3.402447 0,0.882285 0.15618,2.385045 0.34706,3.339465 0.27048,1.352399 0.10293,1.865965 -0.7593,2.327419 -1.5709,0.840718 -6.42866,1.249731 -8.4566,0.712028 z"
     id="path10" />
  <path
     style="fill:#ffcc00;stroke-width:0.572183"
     d="m 120.08634,62.063468 c 0.18502,-0.48217 0.71864,-2.348917 1.18582,-4.148327 1.47025,-5.662954 12.68406,-38.198973 14.03667,-40.726352 0.5772,-1.078489 1.16361,-1.167662 7.67878,-1.167662 h 7.05385 l 1.77597,5.006602 c 0.97678,2.753631 4.60202,13.310409 8.0561,23.459507 l 6.28013,18.452905 h -6.16544 -6.16545 l -1.39406,-4.720511 -1.39407,-4.72051 -8.24196,-0.159361 c -5.70569,-0.110322 -8.36593,0.04124 -8.64484,0.492534 -0.22159,0.358543 -0.72834,2.554485 -1.12611,4.879872 l -0.72322,4.227976 h -6.27429 c -5.4006,0 -6.22745,-0.122077 -5.93788,-0.876673 z m 27.58499,-19.00669 c -0.17331,-0.550726 -1.06376,-3.672328 -1.97877,-6.936894 -1.53074,-5.461327 -2.66047,-7.516597 -3.56498,-6.485582 -0.76946,0.87708 -3.94536,11.116579 -3.94536,12.720342 v 1.703455 h 4.90211 c 4.40727,0 4.87031,-0.101079 4.587,-1.001321 z"
     id="path11" />
  <path
     style="fill:#ffcc00;stroke-width:0.572183"
     d="M 187.96215,45.488556 V 28.036972 h 5.1676 c 3.95214,0 5.24143,0.192371 5.48146,0.81787 0.25568,0.666308 0.79831,0.560274 2.92817,-0.572183 4.77451,-2.538632 12.16388,-1.469564 14.6809,2.123981 l 0.86897,1.240623 2.02998,-1.548344 c 5.77243,-4.402846 12.25809,-4.346312 17.10043,0.149061 3.10324,2.880896 3.23897,3.587261 3.23897,16.857188 0,6.742356 -0.16093,13.063461 -0.35762,14.046901 l -0.35761,1.788072 h -4.99455 -4.99455 l -0.30107,-11.096205 c -0.25549,-9.416215 -0.46144,-11.367688 -1.36029,-12.889331 -1.00475,-1.700908 -1.1922,-1.774193 -3.64475,-1.424962 -1.42203,0.202491 -2.76319,0.53119 -2.98035,0.730441 -0.21716,0.199252 -0.57776,5.833776 -0.80133,12.521166 l -0.4065,12.158891 h -5.55422 -5.55421 l -0.3676,-3.517033 c -0.20219,-1.934368 -0.39016,-6.375939 -0.41773,-9.870158 -0.0276,-3.49422 -0.22068,-7.640538 -0.42914,-9.214042 l -0.37901,-2.860915 h -2.86092 c -2.70319,0 -2.91445,0.110408 -3.83202,2.002641 -0.75139,1.549514 -1.062,4.430106 -1.37281,12.731074 l -0.4017,10.728433 h -5.06425 -5.06425 z"
     id="path12" />
  <path
     style="fill:#ffcc00;stroke-width:0.572183"
     d="m 256.05194,64.078902 c -8.95033,-1.61809 -13.68396,-7.568802 -14.19441,-17.843984 -0.22876,-4.604804 -0.11895,-5.249467 1.47391,-8.653342 3.59389,-7.679962 7.97085,-10.73241 15.41284,-10.748764 7.8967,-0.01735 14.07201,3.313231 17.0179,9.178415 1.61147,3.208363 2.47906,12.847076 1.48776,16.528484 -0.85257,3.166222 -5.59832,8.257878 -9.35949,10.04169 -3.36054,1.593807 -8.03508,2.185108 -11.83851,1.497501 z m 5.93906,-8.797585 c 4.31229,-1.801791 6.17512,-8.980599 3.77696,-14.555284 -0.71075,-1.652174 -1.93493,-3.509467 -2.72039,-4.127317 -2.65327,-2.087062 -6.82458,-1.196138 -8.73818,1.866335 -1.00871,1.614319 -1.14743,2.640968 -1.00158,7.412355 0.18254,5.971625 1.01317,7.966843 3.94365,9.472874 1.76506,0.9071 2.42652,0.897475 4.73954,-0.06896 z"
     id="path13" />
  <path
     style="fill:#ffcc00;stroke-width:0.572183"
     d="m 290.3274,64.111503 c -6.33861,-1.154955 -11.38814,-5.721061 -11.38814,-10.297877 v -1.744964 h 5.13875 c 5.00413,0 5.14815,0.03747 5.49777,1.430458 0.34727,1.383657 0.51611,1.430457 5.16054,1.430457 2.64084,0 4.80153,-0.153384 4.80153,-0.340854 0,-0.187469 -0.44053,-1.086613 -0.97895,-1.998095 -1.02788,-1.740053 -2.35258,-2.319721 -7.72937,-3.382242 -1.79993,-0.355687 -4.81774,-1.418825 -6.70626,-2.362528 -3.92241,-1.960053 -4.603,-3.337883 -4.60864,-9.330008 -0.003,-3.314394 0.0631,-3.459168 2.78204,-6.079845 3.44746,-3.322904 7.45721,-4.821429 12.66372,-4.732686 7.43528,0.126733 14.88867,4.60798 14.868,8.939172 -0.0144,3.011829 -0.66424,3.488009 -5.10249,3.738792 -3.91969,0.221483 -4.07841,0.177443 -5.59676,-1.552901 -1.33356,-1.519749 -1.95779,-1.780847 -4.25761,-1.780847 -2.23546,0 -2.75998,0.20493 -3.07643,1.201964 -0.20982,0.66108 -0.1628,1.397234 0.10449,1.635898 0.26728,0.238664 3.13827,1.148756 6.37997,2.022429 11.00107,2.964903 14.80522,7.40024 12.44413,14.508841 -1.07862,3.247401 -3.72105,5.925565 -7.49256,7.593886 -2.7912,1.234679 -9.17879,1.77967 -12.90373,1.10095 z"
     id="path14" />
</svg>
