<?xml version="1.0" encoding="UTF-8" standalone="no"?>
<!-- Generator: visioncortex VTracer 0.6.12 -->

<svg
   version="1.1"
   width="1332"
   height="320"
   id="svg7"
   sodipodi:docname="white-dtshdma2.svg"
   inkscape:version="1.4.3 (0d15f75, 2025-12-25)"
   xmlns:inkscape="http://www.inkscape.org/namespaces/inkscape"
   xmlns:sodipodi="http://sodipodi.sourceforge.net/DTD/sodipodi-0.dtd"
   xmlns="http://www.w3.org/2000/svg"
   xmlns:svg="http://www.w3.org/2000/svg">
  <defs
     id="defs7" />
  <sodipodi:namedview
     id="namedview7"
     pagecolor="#000000"
     bordercolor="#000000"
     borderopacity="0.25"
     inkscape:showpageshadow="2"
     inkscape:pageopacity="0.0"
     inkscape:pagecheckerboard="0"
     inkscape:deskcolor="#d1d1d1"
     inkscape:zoom="0.42642643"
     inkscape:cx="857.12324"
     inkscape:cy="403.35211"
     inkscape:window-width="1280"
     inkscape:window-height="658"
     inkscape:window-x="-6"
     inkscape:window-y="-6"
     inkscape:window-maximized="1"
     inkscape:current-layer="svg7" />
  <path
     d="M0 0 C1.177 0 2.354 0 3.566 0.001 C4.788 0.011 6.009 0.021 7.268 0.032 C8.402 0.034 9.536 0.036 10.705 0.038 C14.926 0.048 19.148 0.076 23.37 0.102 C32.816 0.143 42.262 0.185 51.995 0.227 C51.995 23.657 51.995 47.087 51.995 71.227 C63.545 71.227 75.095 71.227 86.995 71.227 C86.995 61.657 86.995 52.087 86.995 42.227 C102.675 35.093 118.371 28.005 134.182 21.165 C134.786 20.903 134.786 20.903 137.843 19.58 C141.224 18.121 144.608 16.672 147.995 15.227 C149.135 14.739 150.275 14.25 151.45 13.747 C152.533 13.288 153.617 12.829 154.733 12.356 C155.699 11.945 156.665 11.535 157.66 11.112 C159.995 10.227 159.995 10.227 161.995 10.227 C161.995 30.357 161.995 50.487 161.995 71.227 C171.235 71.227 180.475 71.227 189.995 71.227 C189.995 85.227 189.995 85.227 186.995 90.227 C184.437 91.506 182.627 91.34 179.768 91.325 C179.252 91.323 179.252 91.323 176.643 91.315 C176.103 91.311 176.103 91.311 173.37 91.29 C172.826 91.287 172.826 91.287 170.073 91.276 C167.38 91.264 164.687 91.248 161.995 91.227 C162.01 99.008 162.051 106.788 162.127 114.569 C162.161 118.183 162.186 121.797 162.19 125.411 C162.194 128.906 162.223 132.4 162.268 135.895 C162.287 137.861 162.282 139.828 162.276 141.794 C162.414 150.414 163.624 157.845 169.925 164.163 C176.644 169.938 185.088 170.538 193.651 170.528 C194.044 170.53 194.044 170.53 196.036 170.541 C197.687 170.547 199.337 170.547 200.987 170.543 C203.489 170.54 205.989 170.563 208.491 170.588 C223.676 170.65 223.676 170.65 230.995 167.227 C234.726 163.495 236.133 160.205 236.307 154.977 C236.345 154.25 236.382 153.523 236.42 152.774 C235.32 146.191 230.723 141.567 226.057 137.172 C224.903 136.052 223.75 134.93 222.596 133.809 C220.797 132.078 218.994 130.351 217.185 128.63 C208.401 120.241 201.732 113.408 200.967 100.696 C201.058 92.513 203.877 85.613 208.995 79.227 C211.808 76.825 214.709 74.919 217.995 73.227 C218.661 72.878 219.328 72.529 220.014 72.169 C224.328 70.806 228.428 70.965 232.926 71 C233.921 71 234.917 70.999 235.942 70.999 C239.227 71.001 242.511 71.016 245.795 71.032 C248.075 71.035 250.355 71.038 252.635 71.04 C258.63 71.048 264.626 71.068 270.621 71.09 C276.741 71.11 282.861 71.119 288.981 71.129 C300.986 71.151 312.99 71.185 324.995 71.227 C325.103 73.455 325.18 75.685 325.245 77.915 C325.291 79.156 325.337 80.397 325.385 81.676 C324.929 85.821 324.017 87.402 320.995 90.227 C318.057 90.684 315.613 90.882 312.682 90.852 C306.662 90.852 302.378 91.39 296.995 94.227 C293.192 98.33 291.826 100.941 291.682 106.477 C291.645 107.41 291.607 108.344 291.569 109.305 C292.479 115.55 297.32 119.803 301.713 124 C302.822 125.084 303.93 126.167 305.038 127.25 C306.765 128.928 308.495 130.603 310.231 132.272 C325.981 147.454 325.981 147.454 326.245 159.352 C326.132 167.895 323.361 175.466 317.569 181.782 C308.284 190.69 296.603 190.809 284.454 190.729 C282.81 190.733 281.167 190.738 279.523 190.745 C275.086 190.759 270.651 190.748 266.214 190.731 C261.551 190.717 256.888 190.724 252.225 190.728 C244.393 190.73 236.561 190.717 228.729 190.694 C219.706 190.667 210.683 190.665 201.66 190.677 C192.944 190.688 184.229 190.682 175.513 190.667 C171.821 190.662 168.129 190.662 164.437 190.667 C160.077 190.671 155.718 190.661 151.359 190.64 C149.77 190.634 148.181 190.633 146.592 190.639 C130.248 190.684 113.085 188.751 100.581 177.04 C92.134 167.386 86.853 155.205 86.881 142.335 C86.881 141.174 86.881 140.014 86.881 138.818 C86.886 137.575 86.892 136.332 86.897 135.051 C86.898 134.411 86.898 134.411 86.901 131.172 C86.905 127.78 86.915 124.389 86.926 120.997 C86.936 117.531 86.941 114.066 86.946 110.6 C86.956 103.809 86.976 97.018 86.995 90.227 C75.445 90.227 63.895 90.227 51.995 90.227 C52.041 95.814 52.087 101.401 52.135 107.157 C52.156 110.711 52.175 114.266 52.19 117.821 C52.214 123.454 52.242 129.087 52.296 134.72 C52.34 139.265 52.364 143.81 52.374 148.356 C52.381 150.084 52.396 151.812 52.418 153.539 C52.552 164.678 52.543 174.524 44.62 183.165 C37.328 189.786 30.058 190.376 20.669 190.388 C20.203 190.391 20.203 190.391 17.843 190.403 C14.761 190.418 11.679 190.425 8.596 190.43 C6.442 190.436 4.288 190.442 2.134 190.447 C-2.387 190.458 -6.908 190.464 -11.429 190.467 C-17.186 190.473 -22.943 190.497 -28.7 190.525 C-33.154 190.544 -37.609 190.549 -42.063 190.551 C-44.183 190.554 -46.303 190.562 -48.423 190.575 C-72.174 190.712 -95.869 187.275 -114.068 170.29 C-127.067 156.452 -131.546 143.117 -131.279 124.649 C-130.868 112.954 -126.912 103.63 -120.005 94.227 C-119.263 93.175 -118.52 92.123 -117.755 91.04 C-104.83 77.821 -86.757 70.755 -68.4 70.14 C-65.434 70.112 -62.471 70.115 -59.505 70.129 C-58.429 70.131 -57.353 70.132 -56.244 70.134 C-52.831 70.139 -49.418 70.152 -46.005 70.165 C-43.681 70.17 -41.357 70.174 -39.033 70.178 C-33.357 70.189 -27.681 70.206 -22.005 70.227 C-22.009 69.883 -22.009 69.883 -22.026 68.141 C-22.092 60.971 -22.137 53.801 -22.17 46.631 C-22.184 43.956 -22.206 41.281 -22.232 38.605 C-22.268 34.758 -22.285 30.911 -22.298 27.063 C-22.314 25.869 -22.329 24.675 -22.345 23.445 C-22.347 16.637 -22.079 11.71 -17.392 6.399 C-17.112 6.164 -17.112 6.164 -15.693 4.977 C-15.14 4.498 -14.587 4.018 -14.017 3.524 C-9.602 0.678 -5.172 -0.023 0 0 Z M-54.005 100.227 C-63.377 112.34 -64.325 126.458 -63.005 141.227 C-61.302 150.832 -57.581 157.652 -50.755 164.477 C-43.326 169.205 -34.893 171.944 -26.005 171.227 C-23.867 170.177 -23.867 170.177 -22.005 168.227 C-21.623 165.616 -21.498 163.427 -21.551 160.818 C-21.551 160.067 -21.55 159.315 -21.549 158.541 C-21.552 156.057 -21.583 153.574 -21.615 151.09 C-21.622 149.368 -21.628 147.646 -21.632 145.924 C-21.647 141.391 -21.686 136.859 -21.731 132.327 C-21.772 127.702 -21.79 123.077 -21.81 118.452 C-21.853 109.377 -21.921 100.302 -22.005 91.227 C-24.227 91.196 -26.448 91.175 -28.669 91.157 C-29.906 91.144 -31.143 91.131 -32.418 91.117 C-40.859 91.376 -48.053 94.159 -54.005 100.227 Z "
     fill="#FEFEFE"
     transform="translate(475.00537109375,64.77294921875)"
     id="path1" />
  <path
     d="M0 0 C1.111 -0.007 2.221 -0.014 3.365 -0.021 C6.931 -0.039 10.497 -0.045 14.062 -0.047 C15.278 -0.048 16.494 -0.048 17.746 -0.049 C35.023 -0.034 52.006 0.163 69.062 3.203 C70.082 3.38 71.102 3.557 72.153 3.739 C95.663 7.937 123.366 14.004 141.062 31.203 C141.363 31.484 141.363 31.484 142.883 32.906 C151.087 41.388 150.479 52.778 150.355 63.836 C150.35 65.324 150.346 66.812 150.343 68.3 C150.331 72.183 150.302 76.065 150.268 79.948 C150.238 83.924 150.224 87.899 150.209 91.875 C150.177 99.651 150.126 107.427 150.062 115.203 C148.062 113.203 148.062 113.203 146.438 109.578 C137.915 92.44 115.045 83.892 98.012 78.102 C62.61 66.539 26.251 62.975 -10.812 62.953 C-11.851 62.952 -12.89 62.952 -13.96 62.951 C-29.803 62.967 -45.303 63.393 -60.938 66.203 C-61.434 66.292 -61.434 66.292 -63.946 66.739 C-75.608 68.895 -86.753 71.831 -97.832 76.066 C-100.938 77.203 -100.938 77.203 -102.938 77.203 C-98.494 82.506 -90.601 85.759 -83.938 87.203 C-79.099 86.867 -74.841 85.471 -70.286 83.932 C-65.725 82.516 -61.048 81.603 -56.375 80.641 C-55.359 80.429 -54.344 80.218 -53.297 80 C-31.561 75.599 -9.766 73.987 12.375 74.016 C13.255 74.016 14.135 74.017 15.041 74.017 C55.081 74.092 111.161 76.437 142.062 106.203 C146.899 111.645 150.35 116.791 150.258 124.285 C150.251 125.217 150.245 126.148 150.238 127.107 C150.222 128.067 150.205 129.027 150.188 130.016 C150.178 130.995 150.169 131.974 150.16 132.982 C150.137 135.39 150.104 137.796 150.062 140.203 C147.635 137.776 146.487 135.311 145.062 132.203 C145.062 131.543 145.062 130.883 145.062 130.203 C144.419 130.76 143.776 131.317 143.113 131.891 C108.475 161.143 60.874 166.63 17.062 168.203 C16.123 168.238 15.183 168.272 14.215 168.308 C-29.422 169.667 -88.57 166.446 -122.789 135.77 C-130.297 126.8 -130.619 118.818 -130.426 107.574 C-130.416 105.973 -130.409 104.371 -130.404 102.77 C-130.385 98.583 -130.336 94.396 -130.281 90.209 C-130.229 85.925 -130.207 81.641 -130.182 77.357 C-130.128 68.972 -130.043 60.588 -129.938 52.203 C-127.724 55.105 -125.777 58.049 -123.938 61.203 C-123.051 60.378 -122.164 59.553 -121.25 58.703 C-87.57 30.122 -35.227 25.331 7.062 24.203 C8.355 24.162 9.648 24.121 10.98 24.078 C52.586 23.41 106.744 26.682 140.312 54.453 C142.78 56.921 144.996 59.393 147.062 62.203 C135.062 40.911 110.113 31.702 87.696 25.234 C85.157 24.534 82.613 23.861 80.062 23.203 C79.637 23.092 79.637 23.092 77.482 22.532 C54.452 16.701 29.833 13.593 6.062 13.203 C4.958 13.183 3.853 13.162 2.715 13.141 C-36.559 12.521 -90.807 12.053 -121.938 40.203 C-124.166 42.744 -126.136 45.345 -127.938 48.203 C-128.268 47.543 -128.597 46.883 -128.938 46.203 C-122.467 31.067 -107.405 23.031 -92.891 17.066 C-63.652 5.66 -31.344 0.133 0 0 Z M-109.188 55.266 C-109.796 55.582 -110.404 55.898 -111.031 56.224 C-115.035 58.421 -117.877 60.884 -120.938 64.203 C-119.471 67.731 -117.581 69.684 -114.625 72.078 C-113.866 72.715 -113.106 73.352 -112.324 74.008 C-109.938 75.203 -109.938 75.203 -107.68 74.633 C-106.775 74.161 -105.87 73.689 -104.938 73.203 C-103.628 72.616 -102.313 72.039 -100.996 71.469 C-100.259 71.145 -99.521 70.821 -98.761 70.488 C-35.592 43.107 50.916 40.915 115.047 65.812 C127.818 70.976 139.946 77.668 148.062 89.203 C147.323 82.515 142.588 78.803 138.062 74.203 C137.515 73.642 136.967 73.082 136.402 72.504 C111.494 49.252 68.413 42.629 36.062 39.203 C35.15 39.1 34.237 38.997 33.296 38.891 C-12.917 33.847 -67.003 33.276 -109.188 55.266 Z M148.062 64.203 C149.062 66.203 149.062 66.203 149.062 66.203 Z M-128.938 77.203 C-127.938 79.203 -127.938 79.203 -127.938 79.203 Z M-127.938 79.203 C-124.68 90.687 -114.917 97.432 -104.97 103.085 C-66.175 124.422 -19.867 131.421 23.938 131.453 C24.763 131.454 25.589 131.454 26.439 131.455 C104.517 131.355 104.517 131.355 122.813 114.6 C123.225 114.139 123.638 113.678 124.062 113.203 C121.315 111.886 118.564 110.574 115.812 109.266 C115.035 108.892 114.258 108.519 113.457 108.135 C112.703 107.777 111.949 107.419 111.172 107.051 C110.826 106.886 110.826 106.886 109.077 106.051 C105.239 104.436 102.927 103.972 98.914 105.242 C98.089 105.491 97.264 105.739 96.415 105.995 C95.515 106.27 94.615 106.545 93.688 106.828 C31.866 124.617 -50.467 124.898 -108.75 95.391 C-116.155 91.202 -121.985 85.196 -127.938 79.203 Z M-69.938 92.203 C-36.527 109.375 15.273 108.951 51.938 106.453 C53.175 106.369 54.412 106.286 55.686 106.2 C67.617 105.307 79.321 103.463 91.062 101.203 C87.712 97.852 83.077 97.443 78.562 96.328 C77.495 96.064 76.427 95.8 75.326 95.528 C67.597 93.68 59.852 92.178 52 90.953 C51.524 90.878 51.524 90.878 49.113 90.497 C30.785 87.81 12.419 86.85 -6.089 86.887 C-9.304 86.891 -12.519 86.867 -15.734 86.842 C-34.029 86.786 -52.03 88.375 -69.938 92.203 Z M148.062 89.203 C149.062 91.203 149.062 91.203 149.062 91.203 Z M-128.938 102.203 C-127.938 104.203 -127.938 104.203 -127.938 104.203 Z M-127.938 104.203 C-125.53 114.903 -115.736 121.37 -106.993 126.959 C-68.108 150.485 -17.59 156.42 27 156.453 C27.823 156.454 28.646 156.454 29.493 156.455 C64.115 156.411 108.092 154.73 137.062 133.203 C138.865 131.278 140.448 129.295 142.062 127.203 C141.031 126.089 139.987 124.988 138.938 123.891 C138.357 123.276 137.777 122.661 137.18 122.027 C134.411 119.641 132.616 118.251 129.062 117.203 C125.581 118.19 122.542 119.915 119.375 121.641 C61.693 150.95 -24.392 149.569 -84.938 130.203 C-101.969 124.345 -115.193 117.112 -127.938 104.203 Z "
     fill="#FEFEFE"
     transform="translate(129.9375,63.796875)"
     id="path2" />
  <path
     d="M0 0 C15.18 0 30.36 0 46 0 C46 14.19 46 28.38 46 43 C52.27 43 58.54 43 65 43 C65 28.81 65 14.62 65 0 C80.18 0 95.36 0 111 0 C111 35.31 111 70.62 111 107 C95.82 107 80.64 107 65 107 C65 91.82 65 76.64 65 61 C58.73 61 52.46 61 46 61 C46 76.18 46 91.36 46 107 C30.82 107 15.64 107 0 107 C0 91.82 0 76.64 0 61 C-17.49 61 -34.98 61 -53 61 C-53 55.06 -53 49.12 -53 43 C-35.51 43 -18.02 43 0 43 C0 28.81 0 14.62 0 0 Z "
     fill="#FEFEFE"
     transform="translate(871,135)"
     id="path3" />
  <path
     d="M0 0 C10.89 -0.062 21.78 -0.124 33 -0.188 C34.702 -0.201 34.702 -0.201 43.316 -0.27 C47.561 -0.284 47.561 -0.284 49.564 -0.286 C50.927 -0.291 52.29 -0.301 53.652 -0.317 C70.516 -0.498 88.49 1.118 101.414 13.254 C112.126 25.047 115.177 37.548 115.25 53.062 C115.271 54.132 115.291 55.201 115.312 56.303 C115.381 70.526 111.696 83.099 102 93.75 C88.82 106.13 73.189 107.313 56.055 107.195 C54.615 107.192 53.176 107.19 51.737 107.189 C46.449 107.179 41.162 107.151 35.875 107.125 C24.036 107.084 12.197 107.043 0 107 C0 71.69 0 36.38 0 0 Z M46 18 C46 41.43 46 64.86 46 89 C57.166 89 57.166 89 62.598 84.75 C64.486 82.393 64.942 80.245 65.625 77.312 C65.865 76.319 66.105 75.325 66.352 74.301 C68.867 61.498 68.649 48.674 66.75 35.812 C66.641 35.023 66.532 34.234 66.419 33.421 C65.451 27.501 63.481 23.189 58.875 19.125 C56 18 56 18 46 18 Z "
     fill="#FEFEFF"
     transform="translate(1000,135)"
     id="path4" />
  <path
     d="M0 0 C6.93 0 13.86 0 21 0 C24.004 10.882 27.004 21.765 29.996 32.649 C31.386 37.704 32.778 42.757 34.173 47.81 C35.52 52.684 36.862 57.56 38.2 62.437 C38.712 64.299 39.225 66.16 39.74 68.021 C40.461 70.624 41.176 73.229 41.889 75.835 C42.104 76.606 42.319 77.377 42.54 78.172 C43.474 81.608 44 84.409 44 88 C44.66 88 45.32 88 46 88 C46.063 87.501 46.063 87.501 46.38 84.974 C46.944 81.045 47.883 77.244 48.918 73.416 C49.11 72.693 49.302 71.97 49.5 71.225 C50.13 68.856 50.766 66.489 51.402 64.121 C51.845 62.464 52.287 60.807 52.729 59.15 C53.654 55.685 54.581 52.221 55.51 48.758 C56.699 44.329 57.883 39.898 59.065 35.466 C59.977 32.047 60.891 28.629 61.806 25.21 C62.243 23.577 62.679 21.944 63.115 20.31 C63.726 18.025 64.339 15.74 64.953 13.455 C65.131 12.786 65.309 12.117 65.493 11.428 C66.537 7.556 67.729 3.814 69 0 C75.93 0 82.86 0 90 0 C90 34.32 90 68.64 90 104 C85.71 104 81.42 104 77 104 C76.67 75.95 76.34 47.9 76 19 C74.351 25.052 72.703 31.104 71.004 37.34 C69.961 41.164 68.917 44.987 67.873 48.811 C66.214 54.885 64.556 60.96 62.902 67.036 C61.569 71.932 60.233 76.827 58.895 81.722 C58.384 83.594 57.874 85.465 57.365 87.338 C56.655 89.951 55.94 92.564 55.225 95.176 C55.013 95.957 54.802 96.739 54.584 97.545 C53.114 102.886 53.114 102.886 52 104 C49.47 104.073 46.967 104.092 44.438 104.062 C44.082 104.06 44.082 104.06 42.283 104.049 C40.522 104.037 38.761 104.019 37 104 C33.83 96.169 31.669 88.058 29.402 79.934 C28.963 78.37 28.524 76.806 28.084 75.243 C26.933 71.145 25.786 67.045 24.639 62.946 C23.475 58.784 22.307 54.624 21.139 50.463 C19.824 45.78 18.51 41.097 17.199 36.413 C16.999 35.699 16.799 34.984 16.593 34.248 C16.055 32.326 15.517 30.405 14.98 28.483 C13.996 24.986 12.998 21.493 12 18 C11.67 46.38 11.34 74.76 11 104 C7.37 104 3.74 104 0 104 C0 69.68 0 35.36 0 0 Z "
     fill="#FEFFFE"
     transform="translate(1148,132)"
     id="path5" />
  <path
     d="M0 0 C0.429 0.575 0.859 1.15 1.301 1.742 C2.392 3.193 3.493 4.636 4.605 6.07 C5.128 6.748 5.65 7.426 6.188 8.125 C6.717 8.808 7.247 9.491 7.793 10.195 C9 12 9 12 9 14 C9.583 14.266 10.165 14.531 10.766 14.805 C13.066 16.035 14.775 17.427 16.75 19.125 C53.442 48.057 112.887 53.211 157.5 53.25 C158.202 53.251 158.904 53.251 159.628 53.252 C196.204 53.197 244.835 50.77 273.082 24.176 C275.071 21.92 276.543 19.625 278 17 C278.33 17.66 278.66 18.32 279 19 C273.57 33.069 260.44 40.572 247.402 46.688 C243.637 48.261 239.859 49.679 236 51 C235.278 51.248 234.556 51.497 233.812 51.753 C219.499 56.573 204.892 59.591 190 62 C189.008 62.167 188.016 62.333 186.995 62.505 C169.562 65.298 152.05 65.312 134.438 65.375 C133.285 65.383 132.132 65.391 130.944 65.399 C92.123 65.604 39.057 62.601 9.164 34.227 C2.255 27.118 -0.261 20.074 -0.176 10.254 C-0.159 9.51 -0.142 8.766 -0.125 8 C-0.116 7.225 -0.107 6.451 -0.098 5.652 C-0.074 3.768 -0.039 1.884 0 0 Z "
     fill="#FFFEFF"
     transform="translate(0,191)"
     id="path6" />
  <path
     d="M0 0 C5.61 0 11.22 0 17 0 C22.63 18.087 27.834 36.286 32.963 54.52 C34.096 58.548 35.235 62.573 36.375 66.599 C37.266 69.746 38.153 72.894 39.039 76.042 C39.458 77.527 39.878 79.012 40.299 80.497 C42.505 88.284 44.553 96.03 46 104 C41.71 104 37.42 104 33 104 C31.828 100.231 30.662 96.46 29.5 92.688 C29.166 91.616 28.832 90.544 28.488 89.439 C28.172 88.411 27.857 87.383 27.531 86.324 C27.238 85.376 26.945 84.428 26.643 83.452 C26 81 26 81 26 78 C14.45 78 2.9 78 -9 78 C-10.32 83.28 -11.64 88.56 -13 94 C-13.974 97.341 -14.962 100.678 -16 104 C-20.62 104 -25.24 104 -30 104 C-24.153 82.829 -18.01 61.746 -11.857 40.662 C-10.515 36.062 -9.175 31.462 -7.834 26.861 C-5.224 17.907 -2.612 8.953 0 0 Z M7 14 C5.145 21.368 3.294 28.737 1.446 36.107 C0.816 38.616 0.186 41.124 -0.446 43.632 C-1.351 47.231 -2.254 50.83 -3.156 54.43 C-3.441 55.557 -3.725 56.684 -4.018 57.845 C-4.278 58.886 -4.538 59.927 -4.807 61 C-4.922 61.459 -4.922 61.459 -5.506 63.785 C-6 66 -6 66 -6 68 C3.24 68 12.48 68 22 68 C20.703 60.869 19.341 53.994 17.469 47.027 C17.232 46.138 16.996 45.248 16.752 44.331 C16.257 42.475 15.759 40.618 15.259 38.763 C14.494 35.915 13.741 33.064 12.988 30.213 C12.503 28.401 12.018 26.589 11.531 24.777 C11.307 23.925 11.083 23.073 10.852 22.196 C10.639 21.41 10.425 20.625 10.205 19.816 C10.113 19.471 10.113 19.471 9.645 17.723 C9 16 9 16 7 14 Z "
     fill="#FEFEFF"
     transform="translate(1286,132)"
     id="path7" />
  <path
     style="fill:#ffcc00;stroke-width:0.829108"
     d="M 111.10042,256.06218 C 64.400732,254.72354 32.922411,245.70054 11.500482,227.51268 3.1107111,220.38952 -0.4145538,211.89782 -0.4145538,198.81163 c 0,-4.00827 0.22001887,-7.28777 0.48893089,-7.28777 0.26891201,0 1.10838341,0.6705 1.86549211,1.49001 0.7571086,0.81951 1.1320031,1.09933 0.8330987,0.62183 -0.2989044,-0.4775 -1.1426253,-2.93705 -1.87493543,-5.46566 -1.1434984,-3.94842 -1.30087687,-9.39132 -1.11475274,-38.5535 L 0,115.66051 l 2.8289594,4.14554 c 1.5559276,2.28004 2.9333595,4.27931 3.0609596,4.4428 0.1276002,0.1635 2.0259054,-1.19757 4.218456,-3.02459 C 30.07059,104.59 59.134342,94.571153 100.907,89.924177 c 16.01342,-1.781403 63.6892,-2.5588 79.00935,-1.288319 36.51757,3.028357 62.56074,10.551374 82.76536,23.908202 3.11209,2.05734 7.00335,5.09257 8.64725,6.74496 2.69192,2.70584 2.81823,2.75697 1.27115,0.51453 -2.57471,-3.73194 -10.19789,-10.68782 -15.24976,-13.91486 -14.46548,-9.240294 -37.96894,-17.36085 -66.24105,-22.886593 -21.93645,-4.287449 -41.84905,-5.893449 -72.96147,-5.884523 -31.836668,0.0091 -50.56258,1.80117 -69.202213,6.62253 -19.902159,5.147926 -36.702921,14.462642 -43.6712737,24.212326 -3.0635322,4.2863 -4.0306819,4.83876 -4.0306819,2.3024 0,-2.24128 3.5538055,-7.8671 7.7645462,-12.291589 C 24.002925,82.207354 64.959865,68.431221 108.16534,64.611093 c 16.11897,-1.425202 74.12586,-0.572586 85.43128,1.255714 40.32628,6.521519 62.85665,15.010515 77.63867,29.252712 8.66709,8.350581 9.38437,12.011491 9.40324,47.993101 0.0154,29.29946 -0.36669,35.72038 -2.04267,34.32945 -0.61789,-0.51281 -0.42621,0.83217 0.50118,3.51653 1.50265,4.34954 2.12562,17.06066 1.03549,21.12803 l -0.49775,1.85715 -1.58058,-2.00938 c -0.86932,-1.10516 -2.04334,-3.10996 -2.60893,-4.45511 l -1.02835,-2.44572 -7.03857,5.26353 c -19.79159,14.80041 -47.29276,24.62992 -80.82914,28.89006 -31.14617,3.95653 -76.38137,4.12894 -104.467558,0.39818 -28.757403,-3.81991 -53.206727,-12.81495 -69.692592,-25.64028 -4.9998126,-3.88965 -5.0164437,-3.89532 -3.7309845,-1.27236 0.7101688,1.44909 2.7836095,3.63054 4.6076465,4.84766 1.824036,1.21712 6.301217,4.30085 9.949291,6.85271 16.473079,11.52313 40.761908,20.17869 69.645038,24.81869 22.916729,3.68152 30.539159,4.15267 66.743159,4.12545 36.20095,-0.0272 43.79158,-0.57668 62.8577,-4.55006 23.24839,-4.84495 45.41789,-16.23083 53.10462,-27.27362 3.20199,-4.60001 4.44459,-2.82452 1.73726,2.48229 -8.69489,17.04339 -37.81098,30.5973 -82.4625,38.38735 -21.40689,3.73471 -45.44753,4.79665 -83.73987,3.69901 z m 83.32531,-37.17712 c 13.06296,-1.11559 25.3693,-3.03079 35.23708,-5.48387 16.29752,-4.05149 33.47696,-12.37598 39.3538,-19.06932 2.37943,-2.71002 2.50649,-3.12926 1.44117,-4.75551 -1.61124,-2.45963 -7.73897,-7.06423 -10.23446,-7.69056 -1.51139,-0.37933 -4.85604,0.81463 -12.57869,4.49033 -30.786,14.65295 -65.5802,21.69831 -107.27301,21.72132 -33.30644,0.0184 -67.433316,-4.93546 -93.943773,-13.63684 -16.508797,-5.41859 -29.113542,-12.3169 -38.9763378,-21.33094 -4.9935619,-4.56384 -5.8380111,-3.85155 -2.2015575,1.85699 7.7531693,12.171 33.6955673,26.3775 62.7368713,34.35579 16.9309,4.6513 40.566207,8.53044 59.695747,9.79758 10.06775,0.66687 58.09719,0.4834 66.74316,-0.25497 z m 21.45857,-24.85232 c 11.71734,-0.96922 17.06153,-2.14047 22.40107,-4.90948 4.05407,-2.1024 15.007,-10.64703 15.007,-11.7073 0,-0.68587 -15.49206,-8.0485 -18.35903,-8.72517 -1.35711,-0.32031 -5.49296,0.4292 -10.86321,1.96866 C 161.87619,188.4883 88.504301,186.85658 37.351829,166.507 23.469032,160.98412 16.615306,156.99307 9.4689261,150.27027 c -3.6118771,-3.3978 -6.5670495,-5.93764 -6.5670495,-5.6441 0,1.42554 3.7133756,7.53511 6.3610826,10.46581 9.4354498,10.44391 37.2830238,23.49791 65.3567248,30.63702 17.331226,4.4073 32.362316,6.75994 54.721106,8.56482 8.09416,0.65339 78.03902,0.44239 86.54351,-0.26108 z m 59.89591,-21.37108 c -4.18889,-8.19118 -13.81636,-16.04676 -27.60736,-22.52635 -34.28705,-16.10947 -85.52774,-24.45844 -141.21797,-23.00953 -28.5748,0.74344 -46.343376,3.54445 -68.650333,10.82192 l -10.612801,3.46234 1.907171,1.77987 c 2.296178,2.14291 8.953676,5.52528 13.514678,6.86619 3.548954,1.04337 3.916592,0.98143 21.2058,-3.57293 20.767822,-5.47071 41.767905,-7.99138 71.654255,-8.60075 60.50344,-1.23366 99.07311,5.97413 125.28077,23.41211 3.79936,2.528 8.87883,6.81068 11.28772,9.51704 2.40889,2.70637 4.48066,4.92935 4.60392,4.93996 0.12327,0.0106 -0.49136,-1.37984 -1.36585,-3.08987 z m -93.37654,-2.7683 c 11.99867,-0.86033 33.2186,-3.6853 36.33114,-4.8367 1.69713,-0.62781 1.6679,-0.70797 -0.69775,-1.9133 -5.3372,-2.71939 -35.23379,-8.50435 -54.70286,-10.58495 -13.80498,-1.4753 -56.51513,-2.02136 -70.367849,-0.89966 -11.606429,0.9398 -30.922283,3.66156 -31.732021,4.4713 -0.797847,0.79784 14.780258,6.33935 24.578307,8.7431 25.370583,6.22413 56.926613,7.86422 96.591033,5.02021 z M 276.44076,148.274 c -5.85973,-11.01595 -26.18063,-25.24412 -45.94885,-32.1722 -29.2733,-10.25928 -77.74486,-16.423859 -122.24967,-15.54763 -35.580477,0.70053 -58.628812,5.28106 -82.89988,16.4752 -7.745501,3.57233 -15.8076226,9.33282 -15.8076226,11.29475 0,1.87024 8.5923476,10.13685 10.5362816,10.13685 0.917639,0 4.798674,-1.4397 8.624522,-3.19934 47.02221,-21.62709 114.829759,-28.88156 171.119389,-18.3074 35.20078,6.61257 60.30408,16.84588 72.91148,29.72223 4.27582,4.36702 5.45798,4.87547 3.71435,1.59754 z"
     id="path8" />
  <path
     style="fill:#ffcc00;stroke-width:2.34507"
     d="m 394.52167,253.06112 c -19.03254,-4.48401 -37.45666,-18.09158 -45.61643,-33.69107 -4.85442,-9.28046 -6.6183,-33.72101 -3.18455,-44.12538 4.20211,-12.73252 19.40519,-28.45006 33.5061,-34.63993 10.2332,-4.49205 17.62464,-5.62206 42.29962,-6.46675 l 29.89965,-1.02355 V 107.4795 c 0,-40.803743 3.68295,-44.162599 48.42388,-44.162599 h 26.61837 v 36.348592 36.348587 h 17.58803 17.58803 v -14.79953 -14.79952 l 35.76232,-15.71942 c 19.66928,-8.645678 36.55379,-15.704552 37.52113,-15.686386 0.96734,0.01817 1.7588,13.751691 1.7588,30.518946 v 30.48591 h 14.07042 14.07042 v 7.73874 c 0,10.55667 -3.6206,13.3669 -17.22149,13.3669 h -11.59332 l 1.23625,30.48045 c 1.33915,33.01853 3.8219,40.4333 14.95599,44.66647 6.95738,2.6452 47.72856,2.95869 51.7558,0.39796 1.53154,-0.97384 3.92253,-4.76355 5.31332,-8.42158 3.03541,-7.98372 -2.25786,-18.23407 -13.83674,-26.79471 -3.96591,-2.93212 -9.97234,-9.50419 -13.34765,-14.60461 -5.2227,-7.89205 -5.96241,-11.08935 -4.96559,-21.46333 0.95278,-9.91587 2.54679,-13.41886 8.54478,-18.77807 l 7.37349,-6.58822 h 53.89963 53.89962 v 6.86771 c 0,9.39434 -5.58436,14.23793 -16.41549,14.23793 -11.04775,0 -16.4155,4.86798 -16.4155,14.88709 0,6.19182 2.89368,10.38836 16.4155,23.80657 16.13103,16.00744 16.41549,16.50101 16.41549,28.48429 0,9.55966 -1.25651,13.68787 -5.81519,19.10555 -10.36165,12.31411 -11.87766,12.47688 -109.24836,11.7291 l -90.13011,-0.69218 -10.55282,-5.86268 c -7.98794,-4.43774 -12.12024,-8.95724 -17.00176,-18.5948 -6.07839,-12.00055 -6.44894,-14.53293 -6.44894,-44.07281 v -31.34067 l -16.55761,0.689 -16.55761,0.689 -0.45314,39.8662 c -0.69563,61.19913 0.90011,59.90573 -73.48676,59.56373 -28.18042,-0.12956 -55.21084,-1.17176 -60.06758,-2.31599 z m 57.82602,-22.26348 c 1.86396,-4.85739 1.81666,-33.14244 -0.0932,-55.73607 l -1.51665,-17.94185 h -7.98009 c -19.32202,0 -29.83733,14.05465 -29.95534,40.03802 -0.10826,23.83443 10.50046,36.6555 30.75127,37.16417 4.6853,0.11768 7.88918,-1.1663 8.79401,-3.52427 z"
     id="path9" />
  <path
     style="fill:#ffcc00;stroke-width:1.17254"
     d="m 870.60739,219.28887 v -23.47549 h -26.38204 -26.38204 v -8.79401 -8.79402 h 26.38204 26.38204 v -21.6919 -21.6919 h 23.45071 23.4507 v 21.74122 21.74123 l 9.08715,-0.34246 9.08715,-0.34246 0.31958,-21.39876 0.31959,-21.39877 h 22.83799 22.83798 v 53.93662 53.93662 h -22.83965 -22.83965 l -0.31792,-23.15757 -0.31792,-23.15757 -9.0622,-0.34201 -9.0622,-0.342 -0.31808,23.20644 -0.31808,23.20644 -23.15758,0.31792 -23.15757,0.31792 z"
     id="path10" />
  <path
     style="fill:#ffcc00;stroke-width:1.17254"
     d="m 999.58627,188.88645 v -54.0449 h 35.70463 c 37.2836,0 43.5074,0.60452 53.9943,5.24455 7.6933,3.40396 12.9866,7.99092 17.5798,15.23396 5.4261,8.55653 7.6342,16.13784 8.4361,28.96574 1.8305,29.27865 -9.132,48.04029 -32.4648,55.56182 -5.4768,1.76546 -12.2381,2.15461 -44.8495,2.5813 l -38.40053,0.50244 z m 59.87173,32.41471 c 6.0357,-4.06744 7.3697,-9.79871 7.4332,-31.93672 0.059,-20.49468 -1.0233,-26.41729 -5.8819,-32.19141 -2.5975,-3.08691 -3.7852,-3.57092 -8.7632,-3.57092 h -5.7584 v 35.17606 35.17606 h 4.5167 c 2.7499,0 6.0568,-1.03783 8.4536,-2.65307 z"
     id="path11" />
  <path
     style="fill:#ffcc00;stroke-width:0.586268"
     d="m 1148.0301,235.89544 c -0.2262,-0.22621 -0.4113,-23.71542 -0.4113,-52.19826 v -51.78697 h 10.749 10.749 l 11.0302,40.01277 c 6.0667,22.00702 11.3132,41.79355 11.659,43.97007 0.3458,2.17651 0.911,3.9573 1.2559,3.9573 0.345,0 1.0669,-2.30843 1.6041,-5.12984 1.0382,-5.45208 17.4546,-67.45286 20.4127,-77.09419 l 1.7538,-5.71611 h 10.5358 10.5357 v 52.17782 52.17782 h -6.3571 -6.3572 l -0.3829,-9.23372 c -0.2107,-5.07854 -0.3839,-16.64378 -0.385,-25.70052 -10e-4,-9.05675 -0.1772,-23.67286 -0.3914,-32.48025 l -0.3895,-16.01343 -11.0163,40.39485 c -6.059,22.21718 -11.2864,40.98846 -11.6165,41.71396 -0.5777,1.26997 -0.8852,1.31911 -8.2549,1.31911 h -7.6549 l -1.2086,-2.78478 c -1.1329,-2.61014 -8.3187,-27.41402 -19.0269,-65.67666 l -4.6392,-16.57674 -0.5863,42.37252 -0.5862,42.37252 -5.3049,0.16701 c -2.9176,0.0918 -5.4899,-0.0181 -5.7161,-0.24428 z"
     id="path12" />
  <path
     style="fill:#ffcc00;stroke-width:0.414554"
     d="m 1256.1708,235.99463 c -0.2532,-0.41512 3.7987,-14.83302 15.1192,-53.79823 5.0344,-17.32835 10.3849,-35.75009 11.8901,-40.93719 l 2.7368,-9.4311 h 8.5885 c 7.8205,0 8.608,0.0649 8.8059,0.72547 0.1195,0.39901 1.733,5.7623 3.5855,11.91842 3.4626,11.50646 16.9388,58.66565 20.6774,72.35899 2.3213,8.50247 4.6252,18.88114 4.2702,19.23621 -0.1257,0.12566 -2.9728,0.22847 -6.327,0.22847 -4.3911,0 -6.2093,-0.14508 -6.4946,-0.5182 -0.687,-0.89859 -6.8812,-21.56737 -7.0815,-23.62956 l -0.1913,-1.96913 h -17.3425 -17.3426 l -0.4094,1.55457 c -0.2252,0.85502 -1.256,4.91247 -2.2907,9.01655 -1.0347,4.10408 -2.4185,9.23418 -3.0752,11.40023 l -1.1939,3.93826 -6.8646,0.11352 c -3.7756,0.0624 -6.9527,-0.0308 -7.0603,-0.20728 z m 51.3664,-37.94155 c -1.4956,-9.45555 -11.6573,-48.44138 -13.1538,-50.46559 -0.5083,-0.6875 -1.0319,-1.25 -1.1635,-1.25 -0.2471,0 -13.3089,52.03574 -13.2936,52.95925 0.01,0.40411 3.0776,0.51819 13.9491,0.51819 h 13.9405 z"
     id="path13" />
</svg>
