<?xml version="1.0" encoding="UTF-8" standalone="no"?>
<!-- Generator: visioncortex VTracer 0.6.12 -->

<svg
   version="1.1"
   width="1200"
   height="320"
   id="svg7"
   sodipodi:docname="white-remux2.svg"
   inkscape:version="1.4.3 (0d15f75, 2025-12-25)"
   xmlns:inkscape="http://www.inkscape.org/namespaces/inkscape"
   xmlns:sodipodi="http://sodipodi.sourceforge.net/DTD/sodipodi-0.dtd"
   xmlns="http://www.w3.org/2000/svg"
   xmlns:svg="http://www.w3.org/2000/svg">
  <defs
     id="defs7" />
  <sodipodi:namedview
     id="namedview7"
     pagecolor="#000000"
     bordercolor="#000000"
     borderopacity="0.25"
     inkscape:showpageshadow="2"
     inkscape:pageopacity="0.0"
     inkscape:pagecheckerboard="0"
     inkscape:deskcolor="#d1d1d1"
     inkscape:zoom="0.66939442"
     inkscape:cx="413.05991"
     inkscape:cy="227.07091"
     inkscape:window-width="1280"
     inkscape:window-height="658"
     inkscape:window-x="-6"
     inkscape:window-y="-6"
     inkscape:window-maximized="1"
     inkscape:current-layer="svg7" />
  <path
     d="M0 0 C1.257 0.339 2.514 0.678 3.809 1.027 C23.379 6.847 40.269 18.085 55 32 C55.75 32.686 56.5 33.372 57.273 34.078 C73.564 49.511 84.121 70.566 90 92 C90.17 92.587 90.17 92.587 91.027 95.559 C95.759 115.468 94.791 139.454 89 159 C88.83 159.628 88.83 159.628 87.973 162.809 C82.153 182.379 70.915 199.269 57 214 C56.314 214.75 55.628 215.5 54.922 216.273 C39.489 232.564 18.434 243.121 -3 249 C-4.174 249.339 -5.349 249.678 -6.559 250.027 C-26.468 254.759 -50.454 253.791 -70 248 C-70.628 247.83 -70.628 247.83 -73.809 246.973 C-93.379 241.153 -110.269 229.915 -125 216 C-125.75 215.314 -126.5 214.628 -127.273 213.922 C-143.564 198.489 -154.121 177.434 -160 156 C-160.339 154.826 -160.678 153.651 -161.027 152.441 C-165.759 132.532 -164.791 108.546 -159 89 C-158.661 87.743 -158.322 86.486 -157.973 85.191 C-152.153 65.621 -140.915 48.731 -127 34 C-126.314 33.25 -125.628 32.5 -124.922 31.727 C-109.489 15.436 -88.434 4.879 -67 -1 C-65.826 -1.339 -64.651 -1.678 -63.441 -2.027 C-43.532 -6.759 -19.546 -5.791 0 0 Z M-112 50 C-113.879 51.998 -115.53 53.953 -117.188 56.125 C-117.674 56.755 -118.16 57.385 -118.661 58.035 C-131.433 74.951 -141.329 96.376 -141.062 117.938 C-141.053 118.895 -141.044 119.853 -141.035 120.84 C-141.024 121.553 -141.012 122.266 -141 123 C-138.244 124.378 -135.982 124.163 -132.898 124.205 C-131.617 124.225 -130.336 124.245 -129.016 124.266 C-127.612 124.283 -126.208 124.3 -124.805 124.316 C-123.373 124.337 -121.941 124.358 -120.509 124.379 C-116.737 124.435 -112.966 124.484 -109.195 124.532 C-105.347 124.582 -101.5 124.638 -97.652 124.693 C-90.102 124.801 -82.551 124.902 -75 125 C-74.908 125.474 -74.908 125.474 -74.44 127.871 C-74.187 129.122 -73.933 130.372 -73.672 131.66 C-73.549 132.278 -73.549 132.278 -72.925 135.406 C-70.52 144.752 -64.421 152.389 -56.461 157.691 C-46.186 163.697 -36.738 165.045 -25 163 C-20.44 161.564 -16.707 159.476 -12.75 156.812 C-9.895 154.931 -8.388 154.182 -5 154 C-2.755 155.557 -2.755 155.557 -0.457 157.941 C0.411 158.826 1.278 159.71 2.172 160.621 C2.629 161.1 3.085 161.58 3.555 162.073 C4.984 163.574 6.43 165.056 7.882 166.533 C10.959 169.673 14.012 172.835 17.062 176 C20.601 179.666 24.15 183.323 27.719 186.96 C29.146 188.423 30.556 189.9 31.967 191.379 C32.831 192.263 33.696 193.148 34.586 194.059 C35.344 194.845 36.102 195.632 36.882 196.443 C39 198 39 198 41.119 197.913 C44.297 196.37 46.159 193.566 48.25 190.812 C48.732 190.183 49.215 189.554 49.712 188.906 C63.52 170.517 72.169 148.244 71 125 C68.231 123.616 65.996 123.88 62.898 123.886 C61.617 123.887 60.336 123.887 59.016 123.887 C57.612 123.892 56.208 123.897 54.805 123.902 C53.373 123.904 51.941 123.906 50.509 123.907 C46.737 123.91 42.966 123.92 39.195 123.931 C35.347 123.942 31.5 123.946 27.652 123.951 C20.102 123.962 12.551 123.979 5 124 C4.935 123.587 4.935 123.587 4.606 121.499 C4.431 120.417 4.257 119.335 4.077 118.22 C3.905 117.147 3.734 116.074 3.557 114.968 C1.815 105.686 -3.599 97.727 -11 92 C-21.504 84.945 -31.528 82.726 -44 85 C-49.187 86.495 -53.543 88.509 -57.812 91.812 C-61 94 -61 94 -63.42 93.891 C-66.605 92.791 -68.116 91.347 -70.467 88.939 C-71.318 88.078 -72.169 87.218 -73.046 86.331 C-73.951 85.395 -74.856 84.46 -75.789 83.496 C-76.738 82.532 -77.687 81.57 -78.638 80.608 C-81.135 78.08 -83.62 75.541 -86.102 72.998 C-90.079 68.923 -94.065 64.857 -98.066 60.805 C-99.461 59.386 -100.847 57.958 -102.232 56.53 C-102.655 56.102 -102.655 56.102 -104.792 53.931 C-105.163 53.551 -105.163 53.551 -107.04 51.626 C-109 50 -109 50 -112 50 Z "
     fill="#FEFEFE"
     transform="translate(180,36)"
     id="path1" />
  <path
     d="M0 0 C6.342 5.515 9.182 12.209 12 20 C12.352 19.215 12.704 18.43 13.066 17.621 C18.718 5.594 25.695 -0.949 37.898 -6.262 C51.163 -11.023 66.09 -10.742 79 -5 C91.572 1.599 98.614 11.487 103.312 24.688 C104.878 32.23 105.144 39.702 105.114 47.385 C105.114 48.381 105.114 49.377 105.114 50.404 C105.113 53.666 105.106 56.929 105.098 60.191 C105.096 62.465 105.094 64.739 105.093 67.013 C105.09 72.976 105.08 78.939 105.069 84.901 C105.057 92.068 105.052 99.234 105.046 106.4 C105.037 117.267 105.017 128.133 105 139 C89.16 139 73.32 139 57 139 C56.951 132.764 56.902 126.527 56.852 120.102 C56.816 116.137 56.78 112.172 56.742 108.207 C56.682 101.922 56.624 95.637 56.578 89.352 C56.541 84.282 56.495 79.211 56.442 74.141 C56.423 72.212 56.408 70.283 56.397 68.355 C56.233 42.302 56.233 42.302 50 35 C44.654 31.124 39.536 30.359 33 31 C26.793 32.349 23.548 34.782 20 40 C16.874 46.253 16.844 52.917 16.795 59.759 C16.785 60.618 16.775 61.478 16.765 62.363 C16.733 65.187 16.708 68.012 16.684 70.836 C16.663 72.8 16.642 74.765 16.621 76.729 C16.566 81.888 16.516 87.047 16.468 92.205 C16.409 98.401 16.342 104.597 16.277 110.793 C16.18 120.195 16.091 129.598 16 139 C0.82 139 -14.36 139 -30 139 C-30.026 132.235 -30.052 125.47 -30.078 118.5 C-30.103 114.207 -30.13 109.914 -30.16 105.621 C-30.208 98.811 -30.253 92.002 -30.271 85.192 C-30.286 79.7 -30.321 74.208 -30.368 68.716 C-30.383 66.624 -30.391 64.532 -30.392 62.439 C-30.394 59.502 -30.421 56.566 -30.454 53.629 C-30.449 52.769 -30.444 51.91 -30.439 51.024 C-30.537 45.287 -31.685 40.76 -35 36 C-40.243 31.74 -44.217 30.682 -50.914 30.781 C-56.403 31.357 -61.159 34.159 -65 38 C-68.534 44.943 -69.151 51.052 -69.205 58.738 C-69.215 59.606 -69.225 60.475 -69.235 61.37 C-69.267 64.232 -69.292 67.095 -69.316 69.957 C-69.337 71.945 -69.358 73.934 -69.379 75.922 C-69.435 81.148 -69.484 86.374 -69.532 91.6 C-69.591 97.875 -69.658 104.149 -69.723 110.423 C-69.82 119.949 -69.909 129.474 -70 139 C-85.84 139 -101.68 139 -118 139 C-118 91.15 -118 43.3 -118 -6 C-102.16 -6 -86.32 -6 -70 -6 C-69.835 -2.205 -69.835 -2.205 -69 17 C-68.175 15.515 -68.175 15.515 -64 8 C-58.144 -0.087 -49.68 -6.059 -39.93 -8.566 C-25.295 -10.732 -12.107 -8.948 0 0 Z "
     fill="#FEFEFE"
     transform="translate(775,117)"
     id="path2" />
  <path
     d="M0 0 C120.406 0 120.406 0 141.121 18.957 C153.865 32.813 157.093 49.839 157 68 C155.863 84.948 149.063 99.178 137 111 C134.427 113.156 131.765 115.1 129 117 C127.665 117.997 126.331 118.997 125 120 C125.301 120.576 125.601 121.153 125.911 121.746 C126.826 123.5 127.742 125.255 128.657 127.009 C129.733 129.072 130.81 131.135 131.886 133.198 C134.631 138.458 137.375 143.719 140.117 148.98 C143.075 154.655 146.036 160.328 149 166 C149.239 166.457 149.239 166.457 150.449 168.772 C151.818 171.391 153.19 174.008 154.562 176.625 C154.765 177.013 154.765 177.013 155.792 178.976 C157.384 182.007 158.986 184.978 160.777 187.898 C162 190 162 190 162 192 C143.52 192 125.04 192 106 192 C98.014 176.108 98.014 176.108 94.625 169.348 C92.31 164.729 89.993 160.11 87.672 155.495 C85.801 151.775 83.934 148.053 82.07 144.329 C81.357 142.907 80.642 141.485 79.926 140.064 C78.926 138.079 77.931 136.091 76.938 134.102 C76.369 132.97 75.801 131.837 75.215 130.67 C74 128 74 128 74 126 C66.08 126 58.16 126 50 126 C50 147.78 50 169.56 50 192 C33.5 192 17 192 0 192 C0 128.64 0 65.28 0 0 Z M50 38 C50 55.16 50 72.32 50 90 C55.589 90.062 61.179 90.124 66.938 90.188 C68.683 90.215 70.428 90.242 72.226 90.27 C82.511 90.365 91.507 90.179 99.496 82.746 C104.799 76.59 106.328 69.583 106.211 61.656 C105.613 54.126 102.76 47.95 97 43 C90.702 39.076 85.22 37.853 77.832 37.902 C77.48 37.903 77.48 37.903 75.697 37.905 C73.069 37.911 70.441 37.925 67.812 37.938 C61.934 37.958 56.056 37.979 50 38 Z "
     fill="#FEFEFE"
     transform="translate(347,64)"
     id="path3" />
  <path
     d="M0 0 C15.84 0 31.68 0 48 0 C48.049 6.176 48.098 12.352 48.148 18.715 C48.184 22.639 48.22 26.563 48.258 30.486 C48.318 36.708 48.376 42.929 48.422 49.151 C48.459 54.169 48.505 59.188 48.558 64.206 C48.577 66.116 48.592 68.026 48.603 69.936 C48.62 72.622 48.649 75.307 48.681 77.992 C48.683 78.773 48.685 79.554 48.688 80.359 C48.817 88.985 50.146 97.35 56 104 C61.188 108.364 67.173 108.674 73.742 108.445 C80.343 107.543 85.868 104.946 90 99.625 C93.987 93.674 94.3 86.95 94.319 80.035 C94.329 79.166 94.339 78.297 94.349 77.402 C94.38 74.55 94.397 71.699 94.414 68.848 C94.433 66.862 94.452 64.877 94.473 62.891 C94.524 57.682 94.564 52.472 94.601 47.262 C94.648 41.003 94.71 34.744 94.769 28.484 C94.857 18.99 94.927 9.495 95 0 C110.84 0 126.68 0 143 0 C143 47.85 143 95.7 143 145 C127.16 145 111.32 145 95 145 C94.67 137.74 94.34 130.48 94 123 C93.031 124.65 92.061 126.3 91.062 128 C84.552 138.199 76.122 144.757 64.34 147.585 C49.519 150.211 33.372 149.052 20.625 140.75 C9.234 132.054 2.755 120.295 0.729 106.1 C0.039 100.343 -0.137 94.685 -0.114 88.89 C-0.114 87.923 -0.114 86.957 -0.114 85.96 C-0.113 82.795 -0.106 79.63 -0.098 76.465 C-0.096 74.258 -0.094 72.051 -0.093 69.845 C-0.09 64.06 -0.08 58.274 -0.069 52.489 C-0.057 45.536 -0.052 38.582 -0.046 31.629 C-0.037 21.086 -0.017 10.543 0 0 Z "
     fill="#FEFEFE"
     transform="translate(889,111)"
     id="path4" />
  <path
     d="M0 0 C15.215 12.854 21.504 29.686 24 49 C24 56.59 24 64.18 24 72 C-8.01 72 -40.02 72 -73 72 C-69.182 89.818 -69.182 89.818 -62.688 96.312 C-55.016 101.13 -47.949 101.976 -39 101 C-33.353 99.508 -28.114 97.238 -24 93 C-23.01 91.02 -22.02 89.04 -21 87 C-6.48 87 8.04 87 23 87 C18.562 104.754 11.056 117.21 -4.457 126.991 C-22.798 137.804 -49.494 139.712 -70 134.438 C-89.523 128.388 -103.418 117.298 -113.25 99.375 C-122.386 79.705 -123.802 53.46 -117.379 32.746 C-110.353 13.658 -99.152 -0.738 -80.43 -9.609 C-54.179 -20.253 -22.787 -16.996 0 0 Z M-67 28 C-70.044 32.921 -71.862 37.308 -73 43 C-56.17 43 -39.34 43 -22 43 C-23.166 34.837 -25.69 28.149 -32.438 23 C-43.681 16.022 -58.424 17.76 -67 28 Z "
     fill="#FEFEFE"
     transform="translate(627,123)"
     id="path5" />
  <path
     d="M0 0 C17.82 0 35.64 0 54 0 C59.143 10.286 64.195 20.56 69 31 C69.59 32.276 70.179 33.552 70.77 34.828 C72.182 37.884 73.592 40.942 75 44 C77.809 40.6 79.608 36.871 81.434 32.891 C81.753 32.205 82.072 31.519 82.401 30.813 C83.417 28.627 84.428 26.439 85.438 24.25 C86.445 22.076 87.454 19.903 88.463 17.73 C89.09 16.382 89.714 15.033 90.337 13.683 C92.472 9.07 94.724 4.551 97 0 C113.83 0 130.66 0 148 0 C147.057 3.77 145.967 6.02 144 9.312 C143.684 9.844 143.684 9.844 142.086 12.531 C141.391 13.688 140.695 14.844 140 16 C139.284 17.198 138.569 18.396 137.854 19.594 C135.578 23.401 133.29 27.201 131 31 C130.809 31.317 130.809 31.317 129.843 32.92 C127.213 37.284 124.578 41.643 121.938 46 C121.589 46.575 121.241 47.15 120.882 47.743 C119.869 49.413 118.855 51.082 117.84 52.75 C117.205 53.797 116.571 54.843 115.917 55.922 C114.623 57.999 113.287 60.052 111.915 62.078 C111.263 63.042 110.612 64.007 109.941 65 C109.352 65.846 108.762 66.691 108.155 67.562 C106.703 70.627 106.912 71.822 108 75 C109.252 77.558 109.252 77.558 110.852 80.297 C111.448 81.326 112.045 82.354 112.659 83.414 C113.308 84.515 113.957 85.616 114.625 86.75 C115.301 87.908 115.976 89.066 116.651 90.224 C123.099 101.265 129.698 112.217 136.296 123.169 C138.854 127.419 141.404 131.673 143.938 135.938 C144.357 136.636 144.776 137.334 145.208 138.053 C148 142.77 148 142.77 148 145 C130.84 145 113.68 145 96 145 C92.205 137.41 92.205 137.41 73 99 C70.36 104.28 67.72 109.56 65 115 C60 125 55 135 50 145 C33.5 145 17 145 0 145 C5.623 133.754 5.623 133.754 7.953 129.977 C8.482 129.114 9.01 128.252 9.555 127.364 C10.114 126.46 10.674 125.556 11.25 124.625 C12.485 122.613 13.719 120.602 14.953 118.59 C15.605 117.53 16.256 116.47 16.928 115.378 C20.266 109.936 23.578 104.477 26.889 99.018 C27.971 97.235 29.054 95.452 30.138 93.668 C31.473 91.469 32.804 89.266 34.129 87.06 C35.351 85.061 36.608 83.084 37.902 81.131 C38.471 80.259 39.039 79.387 39.625 78.488 C40.133 77.737 40.641 76.986 41.164 76.212 C42 74 42 74 41.373 71.614 C39.786 68.593 38.135 65.635 36.402 62.695 C36.052 62.099 35.702 61.504 35.342 60.89 C34.21 58.966 33.074 57.045 31.938 55.125 C31.153 53.794 30.369 52.463 29.585 51.132 C27.395 47.418 25.199 43.709 23 40 C22.52 39.19 22.04 38.381 21.546 37.547 C17.867 31.354 14.126 25.201 10.352 19.066 C9.707 18.015 9.062 16.964 8.397 15.88 C7.108 13.781 5.816 11.683 4.519 9.588 C4.226 9.112 4.226 9.112 2.746 6.699 C2.217 5.842 1.688 4.984 1.142 4.1 C0 2 0 2 0 0 Z "
     fill="#FEFEFE"
     transform="translate(1034,111)"
     id="path6" />
  <path
     d="M0 0 C5.825 3.52 10.545 8.99 12.562 15.5 C13.368 23.336 13.687 31.119 8.562 37.5 C3.758 42.545 -0.599 46.106 -7.707 46.836 C-16.223 46.93 -22.113 46.618 -28.402 40.629 C-34.784 33.725 -35.918 28.298 -35.742 18.945 C-35.047 11.083 -31.39 6.95 -25.535 1.945 C-18.471 -2.922 -7.844 -3.476 0 0 Z "
     fill="#FFFFFF"
     transform="translate(156.4375,137.5)"
     id="path7" />
  <path
     style="fill:#ffcc00;stroke-width:0.746944"
     d="M 346.95539,159.74871 V 63.295707 l 41.26864,0.513259 c 66.66797,0.829152 77.13069,2.017155 89.24898,10.133885 14.15428,9.480415 23.0198,23.922739 25.62585,41.745659 1.33369,9.12116 0.58014,24.47929 -1.52525,31.08594 -4.21531,13.22758 -11.9887,24.28932 -22.72969,32.345 -2.90486,2.17863 -5.56147,4.24 -5.90358,4.58082 -0.55828,0.55619 20.5401,41.93028 31.70491,62.17356 2.41831,4.38473 4.39694,8.50226 4.39694,9.15006 0,1.05149 -2.99791,1.17783 -27.94835,1.17783 h -27.94836 l -15.7377,-31.01439 c -8.65573,-17.0579 -15.94677,-31.84739 -16.2023,-32.86552 l -0.46461,-1.85115 h -11.87012 -11.87013 v 32.86553 32.86553 H 371.978 346.95539 Z m 91.43103,-8.05624 c 9.49071,-3.76819 14.11823,-11.57284 14.20934,-23.96508 0.0452,-6.14827 -0.20731,-7.64919 -1.89071,-11.23824 -2.76481,-5.89464 -5.91411,-9.13427 -11.29526,-11.61926 l -4.68851,-2.16512 -18.86033,-0.23335 -18.86033,-0.23334 v 25.87364 25.87364 l 18.48686,-0.27056 c 17.29385,-0.2531 18.77159,-0.38361 22.89894,-2.02233 z"
     id="path9" />
  <path
     style="fill:#ffcc00;stroke-width:1.05634"
     d="m 568.19384,259.76505 c -4.13071,-0.482 -11.31214,-2.26382 -15.95872,-3.95962 -31.77666,-11.59704 -48.64142,-40.02529 -46.42761,-78.26115 0.81267,-14.03607 2.77902,-21.35129 8.96571,-33.35414 5.70049,-11.05959 16.23966,-22.49407 25.54368,-27.71364 28.24199,-15.8438 69.85878,-10.86296 91.43666,10.94345 12.76431,12.89949 18.34893,28.15009 19.19631,52.4216 l 0.54397,15.58099 h -48.58359 -48.5836 l 1.31872,5.67292 c 2.22817,9.58526 3.61977,12.88541 6.61496,15.68717 5.56334,5.20406 9.60914,6.59211 19.27583,6.61322 7.58847,0.0166 9.82631,-0.40258 14.26056,-2.67092 3.11607,-1.59403 6.30039,-4.28471 7.81336,-6.60212 l 2.55374,-3.91154 h 22.00612 c 12.10336,0 22.00612,0.16326 22.00612,0.3628 0,0.19954 -0.8879,2.94349 -1.9731,6.09769 -8.77167,25.49531 -27.1617,39.47848 -56.65366,43.07758 -10.52355,1.28425 -12.47278,1.28556 -23.35546,0.0157 z m 36.00218,-97.35308 c -1.27218,-6.02117 -6.08836,-13.64204 -10.44236,-16.52345 -3.38983,-2.24334 -5.68219,-2.82385 -12.34854,-3.12712 -7.37729,-0.3356 -8.7303,-0.0761 -13.69577,2.62641 -6.09495,3.31728 -9.86313,8.17679 -12.09755,15.60122 l -1.46145,4.85604 h 25.38552 25.38551 z"
     id="path11" />
  <path
     style="fill:#ffcc00;stroke-width:2.11268"
     d="m 656.48635,183.27465 0.5559,-72.35916 23.06834,-0.60326 c 25.49745,-0.66679 26.47679,-0.21628 26.57063,12.22298 l 0.0558,7.39437 5.45721,-6.92476 c 16.96789,-21.53085 57.28209,-20.19679 69.49593,2.29973 2.32394,4.28045 4.7334,7.78519 5.35435,7.78833 0.62095,0.003 2.82401,-2.86371 4.89568,-6.37077 2.07167,-3.50707 8.69391,-9.20237 14.71607,-12.65623 8.93703,-5.12561 13.38864,-6.28339 24.22148,-6.29958 21.95533,-0.0328 34.61271,7.38971 43.9793,25.79023 4.97713,9.77752 5.07256,11.01949 5.07256,66.02112 v 56.05615 h -24.15296 -24.15297 l -0.67098,-48.53693 c -0.63192,-45.71126 -0.92432,-48.79004 -5.02263,-52.88451 -2.3934,-2.39117 -7.69369,-4.88992 -11.77841,-5.55278 -5.92054,-0.96077 -8.65138,-0.15183 -13.46495,3.98863 -7.51621,6.46517 -9.22398,18.96341 -9.38101,68.65461 l -0.10849,34.33098 h -23.12903 -23.12902 l -0.63858,-48.53703 c -0.62008,-47.13131 -0.77656,-48.6749 -5.40277,-53.29706 -6.54579,-6.54006 -19.84081,-6.54035 -26.38711,-5.8e-4 -4.57776,4.57319 -4.81537,6.63818 -6.07195,52.76889 -0.71927,26.40519 -1.4323,48.24712 -1.58451,48.53761 -0.15221,0.2905 -11.22232,0.52817 -24.60026,0.52817 h -24.3235 z"
     id="path12" />
  <path
     style="fill:#ffcc00;stroke-width:2.11268"
     d="m 919.30407,256.76448 c -9.99154,-3.56188 -19.25309,-12.09383 -25.30741,-23.31378 -4.2977,-7.96453 -4.59912,-11.76274 -5.23937,-66.02112 l -0.67933,-57.57043 h 24.44694 24.44693 l 0.14742,25.88029 c 0.26887,47.20023 2.71896,73.00713 7.36248,77.5493 10.60228,10.37087 31.46401,5.55474 36.20888,-8.35916 1.61736,-4.74274 2.56437,-23.11477 2.64085,-51.2324 l 0.11924,-43.83803 h 24.2958 24.2958 v 72.88733 72.88732 h -24.2958 -24.2958 v -9.9884 -9.9884 l -6.71674,8.14857 c -3.69421,4.48172 -10.58682,9.90633 -15.3169,12.05468 -10.29585,4.67628 -30.32552,5.10634 -42.11299,0.90423 z"
     id="path13" />
  <path
     style="fill:#ffcc00;stroke-width:2.11268"
     d="m 1038.5173,246.91444 c 2.4466,-4.79565 11.4976,-20.07861 20.1134,-33.96213 8.6158,-13.88353 15.6651,-26.77274 15.6651,-28.64271 0,-1.86996 -9.0317,-18.45502 -20.0704,-36.85569 -11.0388,-18.40066 -20.0705,-34.38703 -20.0705,-35.52525 0,-1.24355 10.8376,-2.06951 27.1543,-2.06951 h 27.1542 l 10.4826,22.5456 10.4826,22.54561 10.8775,-22.54561 10.8776,-22.5456 h 25.4293 c 17.168,0 25.4293,0.75905 25.4293,2.33645 0,2.40989 -23.5746,42.60848 -34.1641,58.25547 -3.2872,4.85725 -5.9768,10.12044 -5.9768,11.69599 0,1.57555 8.6593,17.56623 19.2429,35.53484 10.5836,17.96862 19.717,33.85859 20.2965,35.31106 0.8093,2.02868 -5.1162,2.64084 -25.5622,2.64084 h -26.6158 l -11.1427,-22.21151 -11.1426,-22.21151 -11.0466,22.21151 -11.0465,22.21151 h -25.4077 -25.4076 z"
     id="path14" />
  <path
     style="fill:#ffcc00;stroke-width:2.11268"
     d="M 117.69428,286.34529 C 79.83837,277.75261 47.035219,252.43967 30.812538,219.30195 19.980347,197.17527 15.84507,180.91746 15.84507,160.45746 c 0,-55.38363 35.72039,-104.708961 89.67709,-123.832698 23.85124,-8.453532 58.55502,-7.427115 84.96325,2.512916 37.83109,14.239585 69.71769,49.784931 79.96991,89.145882 4.05491,15.56783 4.0158,46.96091 -0.0785,62.99792 -4.76202,18.6526 -14.1544,36.39985 -27.88147,52.68315 -15.30588,18.15604 -30.43977,28.70055 -53.41088,37.21386 -21.67457,8.03281 -49.79691,10.06812 -71.39023,5.1668 z m 110.40396,-60.59012 c 11.88725,-14.12721 22.17615,-40.63504 22.2288,-57.26925 l 0.0251,-7.92254 h -32.70623 -32.70622 l -1.26832,-5.80986 c -3.52253,-16.1359 -10.75582,-25.25657 -24.62461,-31.0499 -11.17956,-4.66997 -20.65805,-4.07426 -32.11698,2.01851 -12.09004,6.42834 -11.04222,6.99827 -36.128347,-19.65061 C 80.730292,95.37303 71.23223,86.619718 69.694599,86.619718 c -3.885564,0 -18.868007,23.013152 -24.118373,37.046012 -2.393814,6.39804 -4.958814,16.79253 -5.7,23.09888 -1.649725,14.03658 -2.732603,13.61696 37.006259,14.34021 l 28.290935,0.5149 2.72494,9.23894 c 7.07483,23.98734 33.19448,34.57145 56.89732,23.05572 l 9.62703,-4.67717 21.57858,21.57858 c 11.86822,11.86822 22.68825,21.57858 24.0445,21.57858 1.35626,0 4.97986,-2.98764 8.05245,-6.6392 z"
     id="path15" />
  <path
     style="fill:#ffcc00;stroke-width:2.11268"
     d="m 139.97171,183.73895 c -10.15369,-1.77199 -15.84821,-7.01616 -18.56186,-17.09389 -2.92351,-10.85708 -0.86845,-17.49691 7.76021,-25.07298 16.77117,-14.72527 40.90036,-3.05568 40.90036,19.78063 0,8.66829 -7.74486,18.99265 -16.39291,21.85272 -3.1846,1.05321 -9.35222,1.2933 -13.7058,0.53352 z"
     id="path16" />
</svg>
